<?xml version="1.0" encoding="UTF-8"?>
<!DOCTYPE svg PUBLIC "-//W3C//DTD SVG 1.1//EN" "http://www.w3.org/Graphics/SVG/1.1/DTD/svg11.dtd">
<svg xmlns="http://www.w3.org/2000/svg" version="1.1" width="512px" height="512px" style="shape-rendering:geometricPrecision; text-rendering:geometricPrecision; image-rendering:optimizeQuality; fill-rule:evenodd; clip-rule:evenodd" xmlns:xlink="http://www.w3.org/1999/xlink">
<g><path style="opacity:1" fill="#470137" d="M -0.5,-0.5 C 170.167,-0.5 340.833,-0.5 511.5,-0.5C 511.5,170.167 511.5,340.833 511.5,511.5C 340.833,511.5 170.167,511.5 -0.5,511.5C -0.5,340.833 -0.5,170.167 -0.5,-0.5 Z"/></g>
<g><path style="opacity:1" fill="#fd60f4" d="M 383.5,127.5 C 399.078,127.176 414.578,127.509 430,128.5C 430.37,204.514 430.704,280.514 431,356.5C 403.421,368.441 374.587,372.941 344.5,370C 297.492,360.479 274.159,331.646 274.5,283.5C 278.66,234.504 304.993,205.67 353.5,197C 363.494,196.5 373.494,196.334 383.5,196.5C 383.5,173.5 383.5,150.5 383.5,127.5 Z"/></g>
<g><path style="opacity:1" fill="#fd60f4" d="M 76.5,145.5 C 94.2607,145.027 111.927,145.527 129.5,147C 143.771,174.374 158.437,201.541 173.5,228.5C 187.785,200.762 202.451,173.262 217.5,146C 233.741,145.176 249.907,145.342 266,146.5C 265.968,148.598 265.301,150.598 264,152.5C 243.625,186.083 223.125,219.583 202.5,253C 225.424,290.183 248.091,327.517 270.5,365C 270.355,365.772 270.022,366.439 269.5,367C 251.076,367.973 232.743,367.64 214.5,366C 199.794,338.753 184.96,311.587 170,284.5C 157.079,308.008 144.412,331.674 132,355.5C 129.873,359.589 127.373,363.423 124.5,367C 107.593,367.825 90.7594,367.658 74,366.5C 73.6848,365.092 74.0181,363.759 75,362.5C 96.7511,327.333 118.251,292 139.5,256.5C 118.167,220.167 96.8333,183.833 75.5,147.5C 75.8627,146.817 76.1961,146.15 76.5,145.5 Z"/></g>
<g><path style="opacity:1" fill="#470137" d="M 360.5,235.5 C 368.191,235.403 375.858,235.737 383.5,236.5C 383.667,267.168 383.5,297.835 383,328.5C 362.683,334.444 345.35,329.777 331,314.5C 323.27,299.999 320.937,284.666 324,268.5C 330.084,250.717 342.251,239.717 360.5,235.5 Z"/></g>
</svg>
