<?xml version="1.0" encoding="UTF-8"?>
<!DOCTYPE svg PUBLIC "-//W3C//DTD SVG 1.1//EN" "http://www.w3.org/Graphics/SVG/1.1/DTD/svg11.dtd">
<svg xmlns="http://www.w3.org/2000/svg" version="1.1" width="225px" height="225px" style="shape-rendering:geometricPrecision; text-rendering:geometricPrecision; image-rendering:optimizeQuality; fill-rule:evenodd; clip-rule:evenodd" xmlns:xlink="http://www.w3.org/1999/xlink">
<g><path style="opacity:1" fill="#fefefe" d="M -0.5,-0.5 C 74.5,-0.5 149.5,-0.5 224.5,-0.5C 224.5,74.5 224.5,149.5 224.5,224.5C 149.5,224.5 74.5,224.5 -0.5,224.5C -0.5,149.5 -0.5,74.5 -0.5,-0.5 Z"/></g>
<g><path style="opacity:1" fill="#1692ed" d="M 103.5,31.5 C 111.969,30.157 119.136,32.4903 125,38.5C 128.662,45.5485 127.995,52.2152 123,58.5C 121.065,60.1022 118.899,61.2689 116.5,62C 97.3328,62.833 81.8328,70.6663 70,85.5C 57.353,110.262 61.1864,132.095 81.5,151C 103.376,164.793 125.376,164.793 147.5,151C 169.467,134.811 179.301,112.977 177,85.5C 175.67,77.8423 173.336,70.5089 170,63.5C 165.524,56.7395 160.857,50.4062 156,44.5C 190.24,69.9606 200.24,102.961 186,143.5C 172.641,172.273 150.141,188.44 118.5,192C 86.9854,193.326 62.1521,181.159 44,155.5C 23.5668,117.357 28.4001,82.8566 58.5,52C 71.8373,41.3283 86.8373,34.495 103.5,31.5 Z"/></g>
</svg>
