<?xml version="1.0" encoding="UTF-8"?>
<!DOCTYPE svg PUBLIC "-//W3C//DTD SVG 1.1//EN" "http://www.w3.org/Graphics/SVG/1.1/DTD/svg11.dtd">
<svg xmlns="http://www.w3.org/2000/svg" version="1.1" width="1751px" height="960px" style="shape-rendering:geometricPrecision; text-rendering:geometricPrecision; image-rendering:optimizeQuality; fill-rule:evenodd; clip-rule:evenodd" xmlns:xlink="http://www.w3.org/1999/xlink">
<g><path style="opacity:1" fill="#1e1e1e" d="M -0.5,-0.5 C 583.167,-0.5 1166.83,-0.5 1750.5,-0.5C 1750.5,319.5 1750.5,639.5 1750.5,959.5C 1166.83,959.5 583.167,959.5 -0.5,959.5C -0.5,639.5 -0.5,319.5 -0.5,-0.5 Z"/></g>
<g><path style="opacity:1" fill="#f14e1d" d="M 765.5,181.5 C 801.833,181.5 838.167,181.5 874.5,181.5C 874.5,248.833 874.5,316.167 874.5,383.5C 840.167,383.5 805.833,383.5 771.5,383.5C 735.018,381.85 706.852,365.85 687,335.5C 668.036,300.725 667.702,265.725 686,230.5C 704.466,201.341 730.966,185.007 765.5,181.5 Z"/></g>
<g><path style="opacity:1" fill="#fd7161" d="M 765.5,181.5 C 838.332,180.334 911.332,180.168 984.5,181C 1029.85,186.739 1059.68,211.239 1074,254.5C 1084.31,301.683 1070.14,339.517 1031.5,368C 1014.99,378.336 996.991,383.503 977.5,383.5C 976.5,383.5 975.5,383.5 974.5,383.5C 941.167,383.5 907.833,383.5 874.5,383.5C 874.5,316.167 874.5,248.833 874.5,181.5C 838.167,181.5 801.833,181.5 765.5,181.5 Z"/></g>
<g><path style="opacity:1" fill="#a159ff" d="M 771.5,383.5 C 805.833,383.5 840.167,383.5 874.5,383.5C 874.5,416.5 874.5,449.5 874.5,482.5C 874.5,484.5 874.5,486.5 874.5,488.5C 874.5,521.167 874.5,553.833 874.5,586.5C 838.5,586.5 802.5,586.5 766.5,586.5C 714.179,579.68 683.012,550.346 673,498.5C 669.227,449.194 689.394,413.694 733.5,392C 745.807,386.92 758.474,384.086 771.5,383.5 Z"/></g>
<g><path style="opacity:1" fill="#1e1f20" d="M 874.5,383.5 C 907.833,383.5 941.167,383.5 974.5,383.5C 934.112,386.075 904.279,405.075 885,440.5C 878.957,454.007 875.457,468.007 874.5,482.5C 874.5,449.5 874.5,416.5 874.5,383.5 Z"/></g>
<g><path style="opacity:1" fill="#1abcfe" d="M 974.5,383.5 C 975.5,383.5 976.5,383.5 977.5,383.5C 1019.93,386.119 1050.43,406.453 1069,444.5C 1085.57,490.046 1076.4,529.546 1041.5,563C 999.278,593.505 956.612,594.171 913.5,565C 889.477,545.12 876.477,519.62 874.5,488.5C 874.5,486.5 874.5,484.5 874.5,482.5C 875.457,468.007 878.957,454.007 885,440.5C 904.279,405.075 934.112,386.075 974.5,383.5 Z"/></g>
<g><path style="opacity:1" fill="#0acf82" d="M 766.5,586.5 C 802.5,586.5 838.5,586.5 874.5,586.5C 874.667,623.502 874.5,660.502 874,697.5C 868.021,741.308 844.188,770.475 802.5,785C 757.314,795.827 720.148,783.327 691,747.5C 671.471,718.321 667.138,686.987 678,653.5C 694.442,613.868 723.942,591.534 766.5,586.5 Z"/></g>
</svg>
