<?xml version="1.0" encoding="UTF-8"?>
<!DOCTYPE svg PUBLIC "-//W3C//DTD SVG 1.1//EN" "http://www.w3.org/Graphics/SVG/1.1/DTD/svg11.dtd">
<svg xmlns="http://www.w3.org/2000/svg" version="1.1" width="512px" height="512px" style="shape-rendering:geometricPrecision; text-rendering:geometricPrecision; image-rendering:optimizeQuality; fill-rule:evenodd; clip-rule:evenodd" xmlns:xlink="http://www.w3.org/1999/xlink">
<g><path style="opacity:0.987" fill="#000000" d="M 511.5,240.5 C 511.5,255.167 511.5,269.833 511.5,284.5C 501.294,369.148 460.627,434.648 389.5,481C 372.947,490.609 355.613,498.609 337.5,505C 328.246,507.489 322.079,504.323 319,495.5C 318.945,464.803 318.278,434.136 317,403.5C 314.823,392.336 309.656,382.836 301.5,375C 331.472,372.68 358.472,362.68 382.5,345C 400.252,328.67 411.085,308.503 415,284.5C 421.286,257.142 419.286,230.475 409,204.5C 404.836,196.005 399.502,188.339 393,181.5C 395.562,171.4 397.062,161.067 397.5,150.5C 397.482,136.897 394.482,124.064 388.5,112C 379.489,111.001 370.823,112.335 362.5,116C 347.184,122.074 332.684,129.574 319,138.5C 276.667,126.5 234.333,126.5 192,138.5C 174.044,126.397 154.544,117.564 133.5,112C 129.442,111.233 125.442,111.4 121.5,112.5C 114.858,127.827 112.358,143.827 114,160.5C 115.576,167.53 116.909,174.53 118,181.5C 98.1141,204.005 89.7808,230.338 93,260.5C 94.0243,287.238 102.024,311.572 117,333.5C 132.577,350.211 151.41,361.711 173.5,368C 185.438,370.721 197.438,373.054 209.5,375C 205.154,378.867 201.654,383.367 199,388.5C 196.275,395.679 193.775,402.846 191.5,410C 175.778,416.492 159.778,417.492 143.5,413C 135.511,409.018 128.677,403.518 123,396.5C 113.894,377.562 99.0609,365.895 78.5,361.5C 66.9919,361.1 64.9919,364.933 72.5,373C 83.283,378.783 91.783,386.949 98,397.5C 102.488,407.81 107.488,417.81 113,427.5C 123.905,439.2 137.405,445.367 153.5,446C 166.564,446.868 179.564,446.368 192.5,444.5C 192.667,461.837 192.5,479.17 192,496.5C 188.39,504.496 182.223,507.329 173.5,505C 93.2012,476.034 39.0346,421.201 11,340.5C 5.53954,322.028 1.70621,303.361 -0.5,284.5C -0.5,269.833 -0.5,255.167 -0.5,240.5C 10.6106,145.581 58.2772,75.748 142.5,31C 206.571,1.54931 272.238,-2.45069 339.5,19C 429.069,53.2929 484.903,117.126 507,210.5C 508.753,220.611 510.253,230.611 511.5,240.5 Z"/></g>
</svg>
