<svg xmlns="http://www.w3.org/2000/svg" width="300" height="300" shape-rendering="geometricPrecision" image-rendering="optimizeQuality" fill-rule="evenodd" xmlns:v="https://vecta.io/nano"><path d="M130.5-.5h38c62.801 10.96 104.634 46.627 125.5 107 2.169 8.062 4.002 16.062 5.5 24v38c-14.005 73.338-57.672 117.005-131 131h-39c-72.667-14-116-57.333-130-130v-39c13.995-73.328 57.662-116.995 131-131z" opacity=".99"/><path fill="#e1e1e1" d="M115.5 90.5h-25v118h19v1h-20v-120c8.849-.326 17.516.007 26 1z"/><path fill="#fcfcfc" d="M115.5 90.5l75 97c-2.093 2.982-4.593 5.648-7.5 8l-1-1-1 3-1-1c-.748 2.251-2.248 3.584-4.5 4l-64-83c-.283-.789-.783-1.456-1.5-2l-.5 93h-19v-118h25z"/><path fill="#ececec" d="M191.5 89.5h19v14c-.958-.453-1.792-1.119-2.5-2h-4l-1 2c-.84-2.964-1.84-3.297-3-1-.691-2.391-1.691-2.391-3 0-1.309-2.391-2.309-2.391-3 0l-1-2c-.278.916-.778 1.582-1.5 2v-13z"/><path fill="#d1d1d1" d="M210.5 103.5v6c-.722-.418-1.222-1.084-1.5-2-.667 2.667-1.333 2.667-2 0l-2 2-7-1c-1.828 2.307-3.494 1.974-5-1-.278.916-.778 1.582-1.5 2v-7c.722-.418 1.222-1.084 1.5-2l1 2c.691-2.391 1.691-2.391 3 0 1.309-2.391 2.309-2.391 3 0 1.16-2.297 2.16-1.964 3 1l1-2h4c.708.881 1.542 1.547 2.5 2z"/><path fill="#bcbcbc" d="M210.5 109.5v8c-.941-2.625-2.107-2.625-3.5 0-1.566.561-2.899-.106-4-2-.667 2.667-1.333 2.667-2 0-1.101 1.894-2.434 2.561-4 2-1.309-2.391-2.309-2.391-3 0l-1-3c-.278.916-.778 1.582-1.5 2v-7c.722-.418 1.222-1.084 1.5-2 1.506 2.974 3.172 3.307 5 1l7 1 2-2c.667 2.667 1.333 2.667 2 0 .278.916.778 1.582 1.5 2z"/><path fill="#a6a6a6" d="M210.5 117.5v7c-1.857-2.518-3.69-2.518-5.5 0-1.715-.02-3.548-.686-5.5-2a7.25 7.25 0 0 0-2.5 2c-1.57-.17-3.403-.503-5.5-1v-7c.722-.418 1.222-1.084 1.5-2l1 3c.691-2.391 1.691-2.391 3 0 1.566.561 2.899-.106 4-2 .667 2.667 1.333 2.667 2 0 1.101 1.894 2.434 2.561 4 2 1.393-2.625 2.559-2.625 3.5 0z"/><path fill="#444" d="M111.5 117.5l-2 92v-1l.5-93c.717.544 1.217 1.211 1.5 2z"/><path fill="#929292" d="M210.5 124.5a16.87 16.87 0 0 1-1 8l-6-3c-1.041 2.491-1.874 2.491-2.5 0-.667 2.667-1.333 2.667-2 0-.667 2.667-1.333 2.667-2 0-.667 2.667-1.333 2.667-2 0-.667 2.667-1.333 2.667-2 0-.383.556-.883.889-1.5 1v-7c2.097.497 3.93.83 5.5 1a7.25 7.25 0 0 1 2.5-2c1.952 1.314 3.785 1.98 5.5 2 1.81-2.518 3.643-2.518 5.5 0z"/><path fill="#747474" d="M210.5 89.5c.996 15.491 1.33 31.158 1 47-.819 2.805-1.319 5.805-1.5 9-.667-2.667-1.333-2.667-2 0-.667-2.667-1.333-2.667-2 0-.667-2.667-1.333-2.667-2 0-.667-2.667-1.333-2.667-2 0-.667-2.667-1.333-2.667-2 0-.667-2.667-1.333-2.667-2 0-.667-2.667-1.333-2.667-2 0-.667-2.667-1.333-2.667-2 0-.667-2.667-1.333-2.667-2 0a112.97 112.97 0 0 1-.5-15c.617-.111 1.117-.444 1.5-1 .667 2.667 1.333 2.667 2 0 .667 2.667 1.333 2.667 2 0 .667 2.667 1.333 2.667 2 0 .667 2.667 1.333 2.667 2 0 .626 2.491 1.459 2.491 2.5 0l6 3a16.87 16.87 0 0 0 1-8v-7-8-6-14z"/><path fill="#444" d="M191.5 89.5v13 7 7 7 7a112.97 112.97 0 0 0 .5 15c.667-2.667 1.333-2.667 2 0 .667-2.667 1.333-2.667 2 0 .667-2.667 1.333-2.667 2 0 .667-2.667 1.333-2.667 2 0 .667-2.667 1.333-2.667 2 0 .667-2.667 1.333-2.667 2 0 .667-2.667 1.333-2.667 2 0 .667-2.667 1.333-2.667 2 0 .667-2.667 1.333-2.667 2 0 .181-3.195.681-6.195 1.5-9v18c-.814 2.131-1.314 4.464-1.5 7-.875-2.013-2.209-2.013-4 0-4.741-.617-9.575-.95-14.5-1-1.327-23.764-1.327-47.431 0-71z"/><path fill="#212121" d="M211.5 154.5c-.158 3.712-.158 7.212 0 10.5-.61 1.947-1.443 3.781-2.5 5.5-3.333-1.333-6.667-1.333-10 0-1.309-2.391-2.309-2.391-3 0-.677-2.189-1.844-2.522-3.5-1l-2-8.5a.91.91 0 0 1 1-.5c4.925.05 9.759.383 14.5 1 1.791-2.013 3.125-2.013 4 0 .186-2.536.686-4.869 1.5-7z"/><path fill="#e1e1e1" d="M190.5 187.5c2.047 2.05 3.714 4.383 5 7-.221 2.597-.721 2.597-1.5 0-.29 1.544-.956 2.877-2 4l-1-2c-3.04 4.561-6.54 7.895-10.5 10l-5-6c2.252-.416 3.752-1.749 4.5-4l1 1 1-3 1 1c2.907-2.352 5.407-5.018 7.5-8z"/><path fill="#cecece" d="M195.5 194.5c2.043 1.079 3.376 2.746 4 5-1.063 3.833-1.896 3.833-2.5 0a22.98 22.98 0 0 1-2 5l-1-2c-.837 2.344-2.171 4.344-4 6l-1-1a13.44 13.44 0 0 1-4.5 4c-1.563-1.445-2.896-3.111-4-5 3.96-2.105 7.46-5.439 10.5-10l1 2c1.044-1.123 1.71-2.456 2-4 .779 2.597 1.279 2.597 1.5 0z"/><path fill="#b9b9b9" d="M199.5 199.5c2.133 1.591 3.799 3.591 5 6-.755 1.966-1.921 2.3-3.5 1-.707 1.581-1.54 3.081-2.5 4.5-.949.617-1.782.451-2.5-.5a22.98 22.98 0 0 0-2 5c-.423-1.456-1.256-1.956-2.5-1.5l1 1c-1.191.698-2.191 1.531-3 2.5-2.133-1.591-3.799-3.591-5-6a13.44 13.44 0 0 0 4.5-4l1 1c1.829-1.656 3.163-3.656 4-6l1 2a22.98 22.98 0 0 0 2-5c.604 3.833 1.437 3.833 2.5 0z"/><path fill="#a4a4a4" d="M204.5 205.5c1.563 1.445 2.896 3.111 4 5-1.187 1.034-2.02 2.367-2.5 4-.914-3.685-1.581-3.352-2 1l-1-2a22.98 22.98 0 0 0-2 5l-1-3c-2.149 2.729-3.816 5.395-5 8-.671-.752-1.504-1.086-2.5-1-1.425-1.422-2.425-3.089-3-5 .809-.969 1.809-1.802 3-2.5l-1-1c1.244-.456 2.077.044 2.5 1.5a22.98 22.98 0 0 1 2-5c.718.951 1.551 1.117 2.5.5.96-1.419 1.793-2.919 2.5-4.5 1.579 1.3 2.745.966 3.5-1z"/><path fill="#8e8e8e" d="M208.5 210.5c1.718 1.723 3.051 3.723 4 6-1.713 1.513-4.213 3.846-7.5 7l-1-1-3 5-1-2c-.377 1.442-1.21 2.442-2.5 3l-5-6c.996-.086 1.829.248 2.5 1 1.184-2.605 2.851-5.271 5-8l1 3a22.98 22.98 0 0 1 2-5l1 2c.419-4.352 1.086-4.685 2-1 .48-1.633 1.313-2.966 2.5-4z"/><path fill="#7a7a7a" d="M212.5 216.5c2.087 1.085 3.42 2.751 4 5-.079 1.458-.579 2.792-1.5 4-1.566-.561-2.899.106-4 2l-1-2c-.113 2.474-1.113 4.474-3 6l-1-1c-.66 1.824-1.827 3.157-3.5 4l-5-6c1.29-.558 2.123-1.558 2.5-3l1 2 3-5 1 1 7.5-7z"/><path fill="#5a5a5a" d="M216.5 221.5c3.016 3.02 5.683 6.354 8 10-2.333 2.503-4.499 5.169-6.5 8l-1-2-2 4-1-2c-.748 2.251-2.248 3.584-4.5 4-2.685-2.69-5.018-5.69-7-9 1.673-.843 2.84-2.176 3.5-4l1 1c1.887-1.526 2.887-3.526 3-6l1 2c1.101-1.894 2.434-2.561 4-2 .921-1.208 1.421-2.542 1.5-4z"/><path fill="#3a3a3a" d="M224.5 231.5a35.23 35.23 0 0 1 6 8c-.969.809-1.802 1.809-2.5 3l-1-2c-2.022 2.031-3.689 4.365-5 7-.974-2.378-1.641-2.044-2 1-1.68.97-3.18 1.97-4.5 3-2.409-2.402-4.409-5.069-6-8 2.252-.416 3.752-1.749 4.5-4l1 2 2-4 1 2c2.001-2.831 4.167-5.497 6.5-8z"/><path fill="#212121" d="M230.5 239.5c2.545 2.291 4.211 4.791 5 7.5-1.515 2.623-3.515 3.623-6 3l1 1-3.5 3.5c-.414-.457-.914-.791-1.5-1-4.094 5.001-7.427 4.334-10-2 1.32-1.03 2.82-2.03 4.5-3 .359-3.044 1.026-3.378 2-1 1.311-2.635 2.978-4.969 5-7l1 2c.698-1.191 1.531-2.191 2.5-3z"/></svg>