<?xml version="1.0" encoding="UTF-8"?>
<!DOCTYPE svg PUBLIC "-//W3C//DTD SVG 1.1//EN" "http://www.w3.org/Graphics/SVG/1.1/DTD/svg11.dtd">
<svg xmlns="http://www.w3.org/2000/svg" version="1.1" width="4096px" height="4096px" style="shape-rendering:geometricPrecision; text-rendering:geometricPrecision; image-rendering:optimizeQuality; fill-rule:evenodd; clip-rule:evenodd" xmlns:xlink="http://www.w3.org/1999/xlink">
<g><path style="opacity:1" fill="#001e36" d="M 1091.5,636.5 C 1729,636.5 2366.5,636.5 3004,636.5C 3154.5,645.916 3278.83,707.582 3377,821.5C 3448.34,909.465 3487.51,1010.3 3494.5,1124C 3494.5,1739.33 3494.5,2354.67 3494.5,2970C 3482.99,3134.93 3411.32,3266.27 3279.5,3364C 3196.06,3422.14 3103.89,3453.64 3003,3458.5C 2365.67,3458.5 1728.33,3458.5 1091,3458.5C 941.035,3449.35 816.701,3387.69 718,3273.5C 646.662,3185.54 607.495,3084.7 600.5,2971C 600.5,2355.33 600.5,1739.67 600.5,1124C 613.084,954.763 688.084,821.429 825.5,724C 906.38,670.428 995.047,641.261 1091.5,636.5 Z"/></g>
<g><path style="opacity:1" fill="#31a8ff" d="M 1571.5,1355.5 C 1602.06,1355.64 1633.56,1355.64 1666,1355.5C 1722.69,1356.77 1779.52,1363.94 1836.5,1377C 1924.53,1397.41 1999.69,1439.91 2062,1504.5C 2112.3,1560.44 2143.96,1625.77 2157,1700.5C 2168.14,1768.8 2166.48,1836.8 2152,1904.5C 2127.29,2009.17 2069.79,2090.33 1979.5,2148C 1922.12,2181.8 1860.45,2204.13 1794.5,2215C 1770.05,2219.27 1746.21,2222.11 1723,2223.5C 1707.03,2225.16 1691.03,2226.5 1675,2227.5C 1640.28,2227.48 1605.28,2227.48 1570,2227.5C 1549.33,2226.46 1530.83,2225.8 1514.5,2225.5C 1514.67,2356.5 1514.5,2487.5 1514,2618.5C 1512.91,2624.59 1509.41,2628.42 1503.5,2630C 1422.5,2630.67 1341.5,2630.67 1260.5,2630C 1257.42,2629.21 1255.25,2627.38 1254,2624.5C 1252.34,2206.21 1252,1787.87 1253,1369.5C 1254.08,1366.09 1256.24,1363.59 1259.5,1362C 1362.78,1359.97 1466.78,1357.8 1571.5,1355.5 Z"/></g>
<g><path style="opacity:1" fill="#001e36" d="M 1647.5,1589.5 C 1654.19,1590.12 1660.69,1590.12 1667,1589.5C 1711.08,1591.25 1753.58,1600.42 1794.5,1617C 1863.07,1650.31 1898.74,1705.31 1901.5,1782C 1901.71,1807.64 1898.54,1833.47 1892,1859.5C 1880.16,1897.01 1857.99,1926.84 1825.5,1949C 1800.41,1965.87 1773.08,1977.87 1743.5,1985C 1706.62,1994.74 1669.46,2000.24 1632,2001.5C 1606.22,2000.6 1580.55,2000.6 1555,2001.5C 1541.3,2000.44 1527.8,1999.77 1514.5,1999.5C 1514.5,1864.17 1514.5,1728.83 1514.5,1593.5C 1531.12,1592.41 1547.96,1591.41 1565,1590.5C 1567.79,1591.2 1570.45,1591.53 1573,1591.5C 1597.93,1590.84 1622.76,1590.17 1647.5,1589.5 Z"/></g>
<g><path style="opacity:1" fill="#31a8ff" d="M 2648.5,1653.5 C 2667.83,1653.59 2686.66,1653.59 2705,1653.5C 2750.59,1655.3 2796.75,1660.13 2843.5,1668C 2873.26,1673.59 2901.92,1682.59 2929.5,1695C 2934.24,1698.65 2936.74,1703.48 2937,1709.5C 2937.67,1779.17 2937.67,1848.83 2937,1918.5C 2934.7,1924.38 2930.37,1927.38 2924,1927.5C 2908.65,1921.6 2893.48,1915.1 2878.5,1908C 2814.8,1884.39 2749.3,1871.23 2682,1868.5C 2670.49,1868.7 2658.16,1868.7 2645,1868.5C 2625.48,1870.06 2605.98,1873.56 2586.5,1879C 2552.13,1892.23 2539.3,1916.73 2548,1952.5C 2557.07,1968.9 2569.57,1982.07 2585.5,1992C 2605.43,2003.13 2625.76,2013.46 2646.5,2023C 2683.58,2037.47 2720.58,2052.14 2757.5,2067C 2802.86,2087.17 2845.86,2111.17 2886.5,2139C 2963.99,2199.17 2998.49,2278.34 2990,2376.5C 2981.95,2462.47 2943.45,2530.97 2874.5,2582C 2829.86,2612.56 2780.86,2633.23 2727.5,2644C 2611.39,2664.58 2496.06,2660.25 2381.5,2631C 2355.17,2623.45 2329.5,2614.11 2304.5,2603C 2298.61,2600.11 2294.44,2595.61 2292,2589.5C 2290.35,2514.54 2290.01,2439.54 2291,2364.5C 2293.45,2358.91 2297.62,2357.08 2303.5,2359C 2366.17,2395.56 2433.51,2419.23 2505.5,2430C 2546.66,2436.56 2587.16,2439.06 2627,2437.5C 2651.11,2436.01 2674.28,2430.51 2696.5,2421C 2725.78,2404.49 2734.95,2380.32 2724,2348.5C 2714.12,2332.95 2701.29,2320.45 2685.5,2311C 2665.38,2299.94 2644.72,2289.94 2623.5,2281C 2589.18,2268.45 2555.18,2255.12 2521.5,2241C 2477.26,2220.69 2435.59,2196.35 2396.5,2168C 2311.43,2098.81 2277.6,2009.97 2295,1901.5C 2313.75,1813.12 2362.58,1747.29 2441.5,1704C 2484.6,1681.47 2530.27,1666.81 2578.5,1660C 2602.17,1656.82 2625.51,1654.65 2648.5,1653.5 Z"/></g>
</svg>
