<svg xmlns="http://www.w3.org/2000/svg" width="512" height="512" shape-rendering="geometricPrecision" image-rendering="optimizeQuality" fill-rule="evenodd" xmlns:v="https://vecta.io/nano"><path fill="#12203c" d="M-.5-.5h512v512H-.5V-.5z"/><path fill="#5f833e" d="M268.5 95.5c-4.042 1.737-8.376 2.737-13 3 3.855-2.535 8.188-3.535 13-3z"/><path fill="#638945" d="M279.5 95.5c4.984-.344 9.317.989 13 4-2.956-.637-5.956-1.137-9-1.5-1.566-.608-2.9-1.442-4-2.5z"/><path fill="#96c93f" d="M268.5 95.5h11c1.1 1.058 2.434 1.892 4 2.5l9 1.5c3.749 1.372 7.415 3.039 11 5 2.002 1.982 4.335 3.648 7 5a374.05 374.05 0 0 0 23 23c3.333 4 7 7.667 11 11 2.561 2.14 4.895 4.473 7 7a57.51 57.51 0 0 0 9 9h1c1 3 3 5 6 6v1a57.51 57.51 0 0 0 9 9h1c1 3 3 5 6 6a84.01 84.01 0 0 0 7.5 8c.791 1.245 1.291 2.578 1.5 4a118.65 118.65 0 0 1 6 14c.665 3.651.999 7.485 1 11.5.187 5.71-.479 11.21-2 16.5-2.654 2.334-3.988 5.334-4 9-1.406.473-2.073 1.473-2 3-3.05 2.049-5.383 4.716-7 8-1.639 2.306-3.639 4.306-6 6a70.72 70.72 0 0 0-8 6.5c-.752.671-1.086 1.504-1 2.5-.342.838-1.008 1.172-2 1-2.36 1.365-4.027 3.365-5 6-4.656 3.989-8.989 8.323-13 13-5.274 3.605-9.941 7.938-14 13-1.406.473-2.073 1.473-2 3-5.321 3.655-9.987 7.988-14 13-2.107 2.227-4.44 4.227-7 6a8.43 8.43 0 0 1-4-.5c-1.289-1.802-2.956-2.969-5-3.5 0-1.333-.667-2-2-2-3.667-5.667-8.333-10.333-14-14 0-1.333-.667-2-2-2-1.333-3.333-3.667-5.667-7-7-5.315-3.385-5.315-6.718 0-10 2.947-1.281 5.281-3.281 7-6a3 3 0 0 1 2-2c2.667-2 5-4.333 7-7 7.98-8.647 16.313-16.98 25-25l3-1.5c1.71-1.651 3.044-3.484 4-5.5h1c2.667-2 5-4.333 7-7l1-2c3.355-1.355 5.689-3.689 7-7l2-1c2.639-1.206 3.472-3.206 2.5-6-3.766-3.287-7.599-6.287-11.5-9a45.41 45.41 0 0 1-8-8c-1.711-3.711-4.377-6.378-8-8-4.464-3.963-8.798-8.13-13-12.5-.948-.483-1.948-.649-3-.5.237-1.291-.096-2.291-1-3a98.52 98.52 0 0 1-7.5-9c-2.106-2.618-4.606-4.618-7.5-6 0-.667-.333-1-1-1a55.48 55.48 0 0 0-13-12c-3.955 2.169-7.289 5.169-10 9l-8 9c-2.764.499-4.431 2.165-5 5-2.635.973-4.635 2.64-6 5-1.228.806-2.228 1.806-3 3a5.81 5.81 0 0 0-4 2l-8 11h-2c-4.839-.823-7.173 1.177-7 6h-3c.149 1.052-.017 2.052-.5 3-1-1.333-2-1.333-3 0a8.43 8.43 0 0 0-.5 4c-3.176.17-5.176 1.837-6 5-1.468-1.833-3.135-2.166-5-1 1.604 1.679 2.271 3.679 2 6a12.93 12.93 0 0 0-5 .5c2.5.833 2.667 2 .5 3.5-.725-1.658-1.892-2.158-3.5-1.5.457.414.791.914 1 1.5-.774 1.211-1.607 1.211-2.5 0 .36 3.397-.806 6.397-3.5 9v1c-3.667 1.667-6.333 4.333-8 8-.953 2.11-2.619 3.277-5 3.5-4.035 3.948-7.702 8.115-11 12.5-2.744.572-3.577 2.238-2.5 5 2.106 2.618 4.606 4.618 7.5 6l3 4 16 15a28.07 28.07 0 0 0 5 5c1.667 3.667 4.333 6.333 8 8a50.72 50.72 0 0 0 9 8c8.258 8.925 16.925 17.592 26 26v1c1.333 2 3 3.667 5 5h1c2.593 3.421 5.759 6.421 9.5 9a8.43 8.43 0 0 1 .5 4c2.447.115 4.447 1.115 6 3 2.258 2.925 4.925 5.591 8 8a19.36 19.36 0 0 0 4.5 4 18.7 18.7 0 0 0 6.5-6c2.55-1.577 4.55-3.577 6-6 .667 0 1-.333 1-1 5.558-3.378 10.724-7.378 15.5-12 .483-.948.649-1.948.5-3v-1c2.254-.624 3.921-1.957 5-4a19.22 19.22 0 0 1 6 1c1.361 2.027 3.027 3.694 5 5 2.069 3.073 4.736 5.406 8 7l8 9c3.604 3.102 7.104 6.435 10.5 10 .747 2.428-.086 4.094-2.5 5a45.41 45.41 0 0 0-8 8l-7 8a85.69 85.69 0 0 0-11 11c-.667 0-1 .333-1 1-2.249.58-3.915 1.913-5 4-9.181 8.565-19.848 13.898-32 16-6.368.33-12.702-.004-19-1-9.406-3.343-17.739-8.343-25-15l-15-16h-1l-16-16c-3.395-4.398-7.395-8.064-12-11-1.73-3.545-4.396-6.212-8-8-.978-2.978-2.978-4.978-6-6-1.979-2.646-4.312-4.979-7-7a57.51 57.51 0 0 0-9-9c-1.979-2.646-4.312-4.979-7-7a57.51 57.51 0 0 0-9-9c-1.385-2.383-3.385-4.05-6-5-6.368-7.697-13.035-15.03-20-22-1.492-4.318-3.492-8.318-6-12-1.661-7.897-2.327-15.897-2-24 1.54-2.338 2.206-5.005 2-8a99.85 99.85 0 0 1 9-16c2.021-2.688 4.354-5.021 7-7 2.667-2 5-4.333 7-7 2.715-2.048 5.048-4.382 7-7 2.278-1.611 4.278-3.611 6-6l15-14c2.719-1.719 4.719-4.053 6-7 2.049-1.382 3.715-3.048 5-5 4.667-2.667 8.333-6.333 11-11 2-1.333 3.667-3 5-5 2.589-.919 4.589-2.586 6-5 2.414-1.411 4.081-3.411 5-6 7.638-5.971 14.638-12.637 21-20 2.878-1.062 4.878-3.062 6-6 7.126-8.479 15.792-14.813 26-19 4.624-.263 8.958-1.263 13-3z"/><path fill="#395732" d="M303.5 104.5c3.174.51 5.508 2.177 7 5-2.665-1.352-4.998-3.018-7-5z"/><path fill="#466538" d="M229.5 117.5c-1.122 2.938-3.122 4.938-6 6l3.5-5c.671-.752 1.504-1.086 2.5-1z"/><path fill="#1d3326" d="M333.5 132.5c4.639 2.639 8.306 6.306 11 11-4-3.333-7.667-7-11-11z"/><path fill="#3f5c31" d="M202.5 143.5c-.919 2.589-2.586 4.589-5 6 .919-2.589 2.586-4.589 5-6z"/><path fill="#2e492b" d="M351.5 150.5c4 2 7 5 9 9a57.51 57.51 0 0 1-9-9z"/><path fill="#3d5b2f" d="M197.5 149.5c-1.411 2.414-3.411 4.081-6 5 1.411-2.414 3.411-4.081 6-5z"/><path fill="#436037" d="M286.5 159.5l-13-10-10 7c2.711-3.831 6.045-6.831 10-9a55.48 55.48 0 0 1 13 12z"/><path fill="#12203c" d="M286.5 159.5c.667 0 1 .333 1 1a98.52 98.52 0 0 1 7.5 9c2.106 2.618 4.606 4.618 7.5 6 .904.709 1.237 1.709 1 3 1.052-.149 2.052.017 3 .5 4.202 4.37 8.536 8.537 13 12.5v3c1.052-.149 2.052.017 3 .5 1.537 1.707 3.204 3.207 5 4.5a45.41 45.41 0 0 0 8 8c2.666 3.499 5.833 6.499 9.5 9 .49 2.045.323 4.045-.5 6l-2 1c-2.715 2.048-5.048 4.382-7 7l-1 2c-3.333 1.333-5.667 3.667-7 7h-1c-3.016 1.743-5.349 4.077-7 7-8.687 8.02-17.02 16.353-25 25-3.333 1.333-5.667 3.667-7 7a3 3 0 0 0-2 2c-2.973 1.31-5.307 3.31-7 6-5.315 3.282-5.315 6.615 0 10 2 2.667 4.333 5 7 7 1.333 0 2 .667 2 2a138.7 138.7 0 0 0 14 14c1.333 0 2 .667 2 2 1.293 1.796 2.793 3.463 4.5 5a8.43 8.43 0 0 1 .5 4c-2.295.636-3.961 1.969-5 4v1c-1.175-.219-2.175.114-3 1-3.689 5.327-8.022 9.994-13 14 0 .667-.333 1-1 1-2.938 1.122-4.938 3.122-6 6a18.7 18.7 0 0 1-6.5 6 19.36 19.36 0 0 1-4.5-4c-1.645-3.645-4.312-6.312-8-8-.433-2.785-1.766-5.119-4-7 .209-.586.543-1.086 1-1.5-1.555-1.646-3.221-1.979-5-1-2.251-2.758-4.918-4.925-8-6.5h-1c-.667-2.667-2.333-4.333-5-5v-1c-1.903-3.248-4.237-6.248-7-9 3.667-10.333.333-13.667-10-10a44.91 44.91 0 0 0-9-7 50.72 50.72 0 0 1-9-8 45.41 45.41 0 0 0-8-8 28.07 28.07 0 0 1-5-5c-1.888-3.399-4.388-6.399-7.5-9-.483-.948-.649-1.948-.5-3a20.76 20.76 0 0 1-8-3l-3-4-7-8 2-3c3.298-4.385 6.965-8.552 11-12.5 2.381-.223 4.047-1.39 5-3.5a45.41 45.41 0 0 0 8-8v-1c7.291-5.126 13.458-11.46 18.5-19 .671-.752 1.504-1.086 2.5-1 4.271-2.601 7.937-5.934 11-10 1.245-1.988 2.578-3.988 4-6h2c4.708-3.707 8.708-8.04 12-13 .772-1.194 1.772-2.194 3-3 2.589-.919 4.589-2.586 6-5 2-1.333 3.667-3 5-5l8-9 10-7 13 10z"/><path fill="#38512f" d="M361.5 159.5c2.333 1.667 4.333 3.667 6 6-3-1-5-3-6-6z"/><path fill="#375330" d="M367.5 166.5c4 2 7 5 9 9a57.51 57.51 0 0 1-9-9z"/><path fill="#436036" d="M186.5 159.5c-2.667 4.667-6.333 8.333-11 11 3.333-4 7-7.667 11-11z"/><path fill="#4b6a3c" d="M255.5 165.5c-1.333 2-3 3.667-5 5 .569-2.835 2.236-4.501 5-5z"/><path fill="#314b2a" d="M287.5 160.5c2.894 1.382 5.394 3.382 7.5 6a98.52 98.52 0 0 0 7.5 9c-2.894-1.382-5.394-3.382-7.5-6a98.52 98.52 0 0 0-7.5-9z"/><path fill="#517339" d="M250.5 170.5c-1.411 2.414-3.411 4.081-6 5 1.365-2.36 3.365-4.027 6-5z"/><path fill="#3d5730" d="M377.5 175.5c2.333 1.667 4.333 3.667 6 6-3-1-5-3-6-6z"/><path fill="#53733a" d="M170.5 175.5c-1.281 2.947-3.281 5.281-6 7v-1c1.715-2.382 3.715-4.382 6-6z"/><path fill="#405e35" d="M241.5 178.5c-3.292 4.96-7.292 9.293-12 13l8-11a5.81 5.81 0 0 1 4-2z"/><path fill="#283b2e" d="M164.5 181.5v1l-15 14c1.283-2.106 2.116-4.44 2.5-7 1.073.78 2.24.613 3.5-.5 2.107-1.264 3.107-3.097 3-5.5 2.185-.204 4.185-.87 6-2z"/><path fill="#698a47" d="M319.5 191.5c3.623 1.622 6.289 4.289 8 8-1.796-1.293-3.463-2.793-5-4.5-.948-.483-1.948-.649-3-.5v-3z"/><path fill="#8db945" d="M227.5 191.5l-4 6c-4.271 2.601-7.937 5.934-11 10-.996-.086-1.829.248-2.5 1-5.042 7.54-11.209 13.874-18.5 19 2.694-2.603 3.86-5.603 3.5-9 .893 1.211 1.726 1.211 2.5 0-.209-.586-.543-1.086-1-1.5 1.608-.658 2.775-.158 3.5 1.5 2.167-1.5 2-2.667-.5-3.5a12.93 12.93 0 0 1 5-.5c.271-2.321-.396-4.321-2-6 1.865-1.166 3.532-.833 5 1 .824-3.163 2.824-4.83 6-5a8.43 8.43 0 0 1 .5-4c1-1.333 2-1.333 3 0 .483-.948.649-1.948.5-3h3c-.173-4.823 2.161-6.823 7-6z"/><path fill="#324931" d="M392.5 193.5c1.294.79 2.461 1.79 3.5 3 1.15 3.612 1.983 7.278 2.5 11a118.65 118.65 0 0 0-6-14z"/><path fill="#274326" d="M223.5 197.5c-3.063 4.066-6.729 7.399-11 10 3.063-4.066 6.729-7.399 11-10z"/><path fill="#334935" d="M143.5 202.5c-1.952 2.618-4.285 4.952-7 7 1.158-3.43 3.492-5.763 7-7z"/><path fill="#77984f" d="M335.5 207.5c3.901 2.713 7.734 5.713 11.5 9 .972 2.794.139 4.794-2.5 6 .823-1.955.99-3.955.5-6-3.667-2.501-6.834-5.501-9.5-9z"/><path fill="#425d36" d="M136.5 209.5c-2 2.667-4.333 5-7 7 1.333-3.333 3.667-5.667 7-7z"/><path fill="#526f38" d="M342.5 223.5c-1.311 3.311-3.645 5.645-7 7 1.952-2.618 4.285-4.952 7-7z"/><path fill="#1f312c" d="M122.5 223.5a99.85 99.85 0 0 0-9 16c.387-6.739 3.387-12.073 9-16z"/><path fill="#476633" d="M191.5 228.5a45.41 45.41 0 0 1-8 8c1.667-3.667 4.333-6.333 8-8z"/><path fill="#5a7b45" d="M334.5 232.5c-2 2.667-4.333 5-7 7 1.333-3.333 3.667-5.667 7-7z"/><path fill="#335334" d="M113.5 239.5c.206 2.995-.46 5.662-2 8 .065-2.928.732-5.595 2-8z"/><path fill="#2c452e" d="M397.5 235.5c-.002 3.665-1.335 6.665-4 9 .012-3.666 1.346-6.666 4-9z"/><path fill="#54723b" d="M326.5 239.5c-.956 2.016-2.29 3.849-4 5.5l-3 1.5c1.651-2.923 3.984-5.257 7-7z"/><path fill="#2f4b28" d="M391.5 247.5c-1.784 2.448-3.118 5.115-4 8h-3c1.617-3.284 3.95-5.951 7-8z"/><path fill="#314e26" d="M167.5 252.5l-2 3 7 8c-2.894-1.382-5.394-3.382-7.5-6-1.077-2.762-.244-4.428 2.5-5z"/><path fill="#324b2f" d="M378.5 261.5c-2.333 3.667-5.333 6.667-9 9-.086-.996.248-1.829 1-2.5a70.72 70.72 0 0 1 8-6.5z"/><path fill="#23382a" d="M175.5 267.5a20.76 20.76 0 0 0 8 3c-.149 1.052.017 2.052.5 3 3.112 2.601 5.612 5.601 7.5 9l-16-15z"/><path fill="#273f27" d="M113.5 271.5c2.508 3.682 4.508 7.682 6 12-3.544-3.087-5.544-7.087-6-12z"/><path fill="#445f34" d="M294.5 271.5c-2 2.667-4.333 5-7 7 1.333-3.333 3.667-5.667 7-7z"/><path fill="#55743b" d="M367.5 271.5c-.919 2.589-2.586 4.589-5 6 .973-2.635 2.64-4.635 5-6z"/><path fill="#415e37" d="M285.5 280.5c-1.719 2.719-4.053 4.719-7 6 1.693-2.69 4.027-4.69 7-6z"/><path fill="#527239" d="M196.5 287.5a45.41 45.41 0 0 1 8 8c-3.667-1.667-6.333-4.333-8-8z"/><path fill="#1c2c36" d="M119.5 283.5c6.965 6.97 13.632 14.303 20 22a8.43 8.43 0 0 1-4-.5c-.458-2.831-1.792-5.164-4-7-3.071.042-6.071-.791-9-2.5 1.116.098 2.116-.402 3-1.5-1.441-1.945-3.107-3.779-5-5.5-.809-1.571-1.143-3.238-1-5z"/><path fill="#618240" d="M278.5 296.5c3.333 1.333 5.667 3.667 7 7-2.667-2-5-4.333-7-7z"/><path fill="#37512f" d="M349.5 290.5c-4.059 5.062-8.726 9.395-14 13 4.059-5.062 8.726-9.395 14-13z"/><path fill="#557440" d="M287.5 305.5c5.667 3.667 10.333 8.333 14 14a138.7 138.7 0 0 1-14-14z"/><path fill="#253d28" d="M145.5 310.5a57.51 57.51 0 0 1 9 9c-4-2-7-5-9-9z"/><path fill="#142434" d="M213.5 303.5a44.91 44.91 0 0 1 9 7c10.333-3.667 13.667-.333 10 10 2.763 2.752 5.097 5.752 7 9-9.075-8.408-17.742-17.075-26-26z"/><path fill="#344e2e" d="M333.5 306.5c-4.039 5.04-8.706 9.373-14 13 4.013-5.012 8.679-9.345 14-13z"/><path fill="#719054" d="M303.5 321.5c2.044.531 3.711 1.698 5 3.5a8.43 8.43 0 0 0 4 .5c-.423.765-.757 1.598-1 2.5l3 3.5a19.22 19.22 0 0 0-6-1 8.43 8.43 0 0 0-.5-4c-1.707-1.537-3.207-3.204-4.5-5z"/><path fill="#233b26" d="M161.5 326.5a57.51 57.51 0 0 1 9 9c-4-2-7-5-9-9z"/><path fill="#435c3c" d="M239.5 330.5c2.667.667 4.333 2.333 5 5-2-1.333-3.667-3-5-5z"/><path fill="#4f6e3c" d="M308.5 330.5c-1.079 2.043-2.746 3.376-5 4 1.039-2.031 2.705-3.364 5-4z"/><path fill="#314b30" d="M319.5 336.5c3.264 1.594 5.931 3.927 8 7-3.264-1.594-5.931-3.927-8-7z"/><path fill="#80a54b" d="M303.5 335.5c.149 1.052-.017 2.052-.5 3-4.776 4.622-9.942 8.622-15.5 12 4.978-4.006 9.311-8.673 13-14 .825-.886 1.825-1.219 3-1z"/><path fill="#1f2e32" d="M245.5 335.5c3.082 1.575 5.749 3.742 8 6.5 1.779-.979 3.445-.646 5 1-.457.414-.791.914-1 1.5 2.234 1.881 3.567 4.215 4 7-1.553-1.885-3.553-2.885-6-3a8.43 8.43 0 0 0-.5-4c-3.741-2.579-6.907-5.579-9.5-9z"/><path fill="#2f482b" d="M177.5 342.5c3.022 1.022 5.022 3.022 6 6-2.55-1.577-4.55-3.577-6-6z"/><path fill="#2c4530" d="M261.5 351.5c3.688 1.688 6.355 4.355 8 8-3.075-2.409-5.742-5.075-8-8z"/><path fill="#182c28" d="M335.5 352.5a8.43 8.43 0 0 1 4 .5c2.128 3.13 4.628 5.963 7.5 8.5.758 5.444-1.409 9.111-6.5 11 1.252-1.501 2.252-3.168 3-5 2.414-.906 3.247-2.572 2.5-5-3.396-3.565-6.896-6.898-10.5-10z"/><path fill="#3e5a2e" d="M286.5 351.5c-1.45 2.423-3.45 4.423-6 6 1.062-2.878 3.062-4.878 6-6z"/><path fill="#38552e" d="M191.5 356.5c4.605 2.936 8.605 6.602 12 11-4.605-2.936-8.605-6.602-12-11z"/><path fill="#587843" d="M343.5 367.5c-.748 1.832-1.748 3.499-3 5-1.501 1.252-3.168 2.252-5 3a45.41 45.41 0 0 1 8-8z"/><path fill="#243530" d="M203.5 367.5l16 16c-3.608-2.27-6.942-4.937-10-8a4.85 4.85 0 0 0-4-1c.1-2.608-.567-4.942-2-7z"/><path fill="#192f24" d="M328.5 383.5c-2.68 4.68-6.347 8.347-11 11a85.69 85.69 0 0 1 11-11z"/><path fill="#213729" d="M220.5 383.5l15 16-13-10c-1.586-1.673-2.253-3.673-2-6z"/><path fill="#355028" d="M316.5 395.5c-1.085 2.087-2.751 3.42-5 4 1.085-2.087 2.751-3.42 5-4z"/><path fill="#223431" d="M311.5 399.5c-1.532 3.78-3.865 6.947-7 9.5 1.231 1.183 1.231 2.349 0 3.5-.886-.825-1.219-1.825-1-3-3.175 1.63-6.509 3.13-10 4.5-4.618.994-9.285 1.494-14 1.5 12.152-2.102 22.819-7.435 32-16z"/></svg>