<?xml version="1.0" encoding="UTF-8"?>
<!DOCTYPE svg PUBLIC "-//W3C//DTD SVG 1.1//EN" "http://www.w3.org/Graphics/SVG/1.1/DTD/svg11.dtd">
<svg xmlns="http://www.w3.org/2000/svg" version="1.1" width="2300px" height="2000px" style="shape-rendering:geometricPrecision; text-rendering:geometricPrecision; image-rendering:optimizeQuality; fill-rule:evenodd; clip-rule:evenodd" xmlns:xlink="http://www.w3.org/1999/xlink">
<g><path style="opacity:0.993" fill="#61dbfb" d="M 659.5,-0.5 C 688.167,-0.5 716.833,-0.5 745.5,-0.5C 794.471,8.21314 841.138,24.0465 885.5,47C 937.393,74.4306 986.393,106.097 1032.5,142C 1073.13,174.118 1112.13,208.284 1149.5,244.5C 1213.16,182.303 1282.16,127.137 1356.5,79C 1402.54,50.1509 1451.54,27.4842 1503.5,11C 1520.15,6.50182 1536.82,2.66848 1553.5,-0.5C 1582.17,-0.5 1610.83,-0.5 1639.5,-0.5C 1714.98,14.8243 1769.48,57.1576 1803,126.5C 1824.8,174.829 1837.47,225.496 1841,278.5C 1845.68,349.914 1842.02,420.914 1830,491.5C 1823,535.494 1813.83,578.994 1802.5,622C 1885.33,644.606 1964.99,675.273 2041.5,714C 2101.99,744.34 2155.83,783.84 2203,832.5C 2221.4,853.239 2237.06,875.906 2250,900.5C 2284.6,975.115 2280.93,1047.78 2239,1118.5C 2214.5,1156.34 2184.33,1189.17 2148.5,1217C 2101.43,1252.56 2050.76,1282.56 1996.5,1307C 1933.61,1335.08 1868.94,1358.41 1802.5,1377C 1827.72,1470.48 1841.38,1565.65 1843.5,1662.5C 1844.62,1724.87 1835.12,1785.54 1815,1844.5C 1798.89,1888.61 1773.05,1925.78 1737.5,1956C 1708.1,1978.7 1675.1,1993.2 1638.5,1999.5C 1610.17,1999.5 1581.83,1999.5 1553.5,1999.5C 1498.19,1989.34 1445.86,1970.5 1396.5,1943C 1325.53,1903.03 1259.86,1855.69 1199.5,1801C 1182.68,1785.68 1166.02,1770.18 1149.5,1754.5C 1100.28,1801.9 1048.28,1845.74 993.5,1886C 942.447,1922.95 887.447,1953.29 828.5,1977C 801.351,1986.89 773.684,1994.39 745.5,1999.5C 716.833,1999.5 688.167,1999.5 659.5,1999.5C 590.439,1985.92 538.606,1948.59 504,1887.5C 476.696,1835.24 461.363,1779.57 458,1720.5C 453.398,1651.13 456.731,1582.13 468,1513.5C 474.948,1467.42 484.448,1421.92 496.5,1377C 404.841,1351.79 317.174,1316.79 233.5,1272C 182.539,1243.73 136.705,1208.56 96,1166.5C 66.7665,1134.72 45.7665,1098.05 33,1056.5C 17.7452,997.031 25.4119,940.698 56,887.5C 78.3455,850.804 106.179,818.638 139.5,791C 198.906,744.388 263.906,706.721 334.5,678C 387.356,656.158 441.356,637.492 496.5,622C 471.124,528.204 457.458,432.704 455.5,335.5C 454.462,273.456 463.962,213.122 484,154.5C 500.761,108.768 527.928,70.601 565.5,40C 593.799,19.4023 625.132,5.90232 659.5,-0.5 Z M 685.5,95.5 C 715.204,94.053 744.204,97.8863 772.5,107C 826.008,125.252 875.675,150.586 921.5,183C 977.884,222.864 1030.88,267.031 1080.5,315.5C 1012.57,390.076 949.566,468.409 891.5,550.5C 791.445,560.481 692.279,576.148 594,597.5C 592.674,597.245 591.674,596.578 591,595.5C 571.421,520.691 559.421,444.691 555,367.5C 552.577,323.509 555.244,279.842 563,236.5C 569.182,199.49 583.515,166.156 606,136.5C 627.276,112.612 653.776,98.9457 685.5,95.5 Z M 1580.5,95.5 C 1637.14,89.9012 1679.97,111.234 1709,159.5C 1726.65,193.74 1737.31,230.074 1741,268.5C 1746.53,327.976 1745.19,387.309 1737,446.5C 1730.16,496.718 1720.49,546.384 1708,595.5C 1707.33,596.578 1706.33,597.245 1705,597.5C 1606.74,576.011 1507.57,560.344 1407.5,550.5C 1349.43,468.409 1286.43,390.076 1218.5,315.5C 1276.08,258.391 1338.75,207.891 1406.5,164C 1448.15,137.18 1492.81,116.846 1540.5,103C 1553.86,99.8923 1567.2,97.3923 1580.5,95.5 Z M 1148.5,386.5 C 1194.74,435.737 1238.07,487.404 1278.5,541.5C 1276,541.833 1273.5,542.167 1271,542.5C 1216.99,540.187 1163.33,539.187 1110,539.5C 1079.63,540.737 1049.47,541.57 1019.5,542C 1060.47,488.524 1103.47,436.69 1148.5,386.5 Z M 1086.5,638.5 C 1175.13,636.949 1264.13,639.449 1353.5,646C 1429.79,757.686 1497.63,874.852 1557,997.5C 1557.67,998.833 1557.67,1000.17 1557,1001.5C 1497.63,1124.15 1429.79,1241.31 1353.5,1353C 1217.78,1362.99 1081.78,1362.99 945.5,1353C 869.206,1241.31 801.373,1124.15 742,1001.5C 741.333,1000.17 741.333,998.833 742,997.5C 801.373,874.852 869.206,757.686 945.5,646C 992.884,642.516 1039.88,640.016 1086.5,638.5 Z M 814.5,658.5 C 815.873,658.343 817.207,658.51 818.5,659C 772.175,731.791 729.008,806.624 689,883.5C 662.645,821.275 639.145,757.941 618.5,693.5C 683.404,678.795 748.738,667.128 814.5,658.5 Z M 1480.5,659.5 C 1547.66,666.693 1614.32,678.027 1680.5,693.5C 1659.85,757.941 1636.35,821.275 1610,883.5C 1570.09,806.645 1526.92,731.978 1480.5,659.5 Z M 519.5,717.5 C 520.833,717.5 522.167,717.5 523.5,717.5C 544.404,785.381 568.571,852.048 596,917.5C 607.742,944.898 619.575,972.231 631.5,999.5C 600.169,1068.98 571.669,1139.65 546,1211.5C 537.989,1234.7 530.489,1258.03 523.5,1281.5C 429.226,1257.03 340.226,1220.2 256.5,1171C 79.1667,1056.67 79.1667,942.333 256.5,828C 312.919,794.4 372.252,766.733 434.5,745C 462.792,735.29 491.125,726.124 519.5,717.5 Z M 1775.5,717.5 C 1856.72,738.787 1934.39,768.954 2008.5,808C 2052.22,831.38 2091.72,860.546 2127,895.5C 2143.9,913.42 2157.24,933.753 2167,956.5C 2180.46,993.683 2177.13,1029.35 2157,1063.5C 2144.1,1083.75 2128.94,1102.25 2111.5,1119C 2070.24,1154.65 2024.9,1184.32 1975.5,1208C 1911.03,1238.4 1844.36,1262.9 1775.5,1281.5C 1745.7,1184.75 1709.37,1090.59 1666.5,999C 1709.61,907.848 1745.94,814.015 1775.5,717.5 Z M 688.5,1115.5 C 728.902,1192.15 772.235,1266.99 818.5,1340C 751.205,1332.28 684.538,1320.78 618.5,1305.5C 639.28,1241.15 662.613,1177.82 688.5,1115.5 Z M 1609.5,1115.5 C 1636.29,1177.51 1659.95,1240.84 1680.5,1305.5C 1614.46,1320.78 1547.8,1332.28 1480.5,1340C 1526.94,1267.31 1569.94,1192.48 1609.5,1115.5 Z M 591.5,1401.5 C 690.651,1422.58 790.651,1438.25 891.5,1448.5C 949.211,1530.4 1012.04,1608.4 1080,1682.5C 1016.18,1748.3 944.684,1804.47 865.5,1851C 830.445,1871.03 793.445,1886.36 754.5,1897C 660.75,1920.39 599.584,1886.22 571,1794.5C 558.963,1751.34 553.463,1707.34 554.5,1662.5C 556.285,1574.01 568.618,1487.01 591.5,1401.5 Z M 1702.5,1401.5 C 1704.77,1401.14 1706.6,1401.81 1708,1403.5C 1727.58,1478.31 1739.58,1554.31 1744,1631.5C 1746.48,1677.21 1743.48,1722.54 1735,1767.5C 1710.73,1884.56 1641.23,1926.06 1526.5,1892C 1484.13,1877.81 1444.13,1858.81 1406.5,1835C 1338.26,1791.09 1275.76,1740.25 1219,1682.5C 1286.96,1608.4 1349.79,1530.4 1407.5,1448.5C 1485.61,1440.53 1563.27,1429.36 1640.5,1415C 1661.45,1411.18 1682.12,1406.68 1702.5,1401.5 Z M 1019.5,1457.5 C 1021.98,1456.84 1024.64,1456.5 1027.5,1456.5C 1108.67,1460.49 1189.83,1460.49 1271,1456.5C 1273.5,1456.83 1276,1457.17 1278.5,1457.5C 1238.12,1511.06 1195.28,1562.73 1150,1612.5C 1129.96,1590.8 1110.3,1568.8 1091,1546.5C 1066.67,1517.13 1042.83,1487.46 1019.5,1457.5 Z"/></g>
<g><path style="opacity:0.996" fill="#61dbfb" d="M 1139.5,798.5 C 1221.15,797.893 1282.98,832.227 1325,901.5C 1360.61,971.303 1358.61,1039.97 1319,1107.5C 1278.37,1166.87 1221.87,1197.87 1149.5,1200.5C 1074.7,1197.7 1017.2,1165.03 977,1102.5C 940.196,1036.06 939.196,969.062 974,901.5C 1011.57,839.12 1066.74,804.787 1139.5,798.5 Z"/></g>
</svg>
