<?xml version="1.0" encoding="UTF-8"?>
<!DOCTYPE svg PUBLIC "-//W3C//DTD SVG 1.1//EN" "http://www.w3.org/Graphics/SVG/1.1/DTD/svg11.dtd">
<svg xmlns="http://www.w3.org/2000/svg" version="1.1" width="2048px" height="2048px" style="shape-rendering:geometricPrecision; text-rendering:geometricPrecision; image-rendering:optimizeQuality; fill-rule:evenodd; clip-rule:evenodd" xmlns:xlink="http://www.w3.org/1999/xlink">
<g><path style="opacity:1" fill="#2d79c7" d="M 181.5,-0.5 C 742.833,-0.5 1304.17,-0.5 1865.5,-0.5C 1941.3,9.15272 1996.14,48.1527 2030,116.5C 2039.14,137.407 2044.97,159.073 2047.5,181.5C 2047.5,742.833 2047.5,1304.17 2047.5,1865.5C 2037.85,1941.3 1998.85,1996.14 1930.5,2030C 1909.59,2039.14 1887.93,2044.97 1865.5,2047.5C 1304.17,2047.5 742.833,2047.5 181.5,2047.5C 105.697,2037.85 50.8635,1998.85 17,1930.5C 7.85894,1909.59 2.02561,1887.93 -0.5,1865.5C -0.5,1304.17 -0.5,742.833 -0.5,181.5C 9.15272,105.697 48.1527,50.8635 116.5,17C 137.407,7.85894 159.073,2.02561 181.5,-0.5 Z"/></g>
<g><path style="opacity:1" fill="#fefefe" d="M 1839.5,985.5 C 1839.83,1047.67 1839.5,1109.67 1838.5,1171.5C 1757,1121.38 1668.33,1102.55 1572.5,1115C 1549.17,1118.99 1527.84,1127.66 1508.5,1141C 1475.8,1166.61 1467.97,1198.45 1485,1236.5C 1492.98,1248.6 1502.48,1259.43 1513.5,1269C 1540.41,1288.97 1569.41,1305.63 1600.5,1319C 1642.89,1336.02 1684.56,1355.02 1725.5,1376C 1765.01,1396.54 1799.51,1423.71 1829,1457.5C 1859.81,1495.5 1876.48,1539.17 1879,1588.5C 1886.08,1723.65 1825.91,1812.82 1698.5,1856C 1601.79,1881.75 1503.79,1886.75 1404.5,1871C 1369.3,1865.55 1334.97,1856.88 1301.5,1845C 1289.84,1840.49 1278.51,1835.33 1267.5,1829.5C 1267.17,1763 1267.5,1696.66 1268.5,1630.5C 1363.45,1708.07 1471.45,1734.9 1592.5,1711C 1609.73,1705.89 1625.4,1697.89 1639.5,1687C 1668.28,1659.13 1674.11,1626.97 1657,1590.5C 1647.28,1576.45 1635.78,1563.95 1622.5,1553C 1606.56,1541.54 1589.9,1531.37 1572.5,1522.5C 1530.74,1503.09 1488.74,1484.59 1446.5,1467C 1407.88,1449.02 1372.54,1426.02 1340.5,1398C 1287.32,1347.68 1261.65,1285.68 1263.5,1212C 1265.73,1120.19 1306.06,1050.86 1384.5,1004C 1422.85,982.547 1463.85,968.213 1507.5,961C 1543.84,954.193 1580.51,951.027 1617.5,951.5C 1666.86,951.502 1715.86,955.668 1764.5,964C 1789.93,969.773 1814.93,976.94 1839.5,985.5 Z"/></g>
<g><path style="opacity:1" fill="#fefffe" d="M 727.5,1867.5 C 727.5,1623.5 727.5,1379.5 727.5,1135.5C 642.167,1135.5 556.833,1135.5 471.5,1135.5C 471.5,1080.83 471.5,1026.17 471.5,971.5C 710.167,971.5 948.833,971.5 1187.5,971.5C 1187.5,1026.17 1187.5,1080.83 1187.5,1135.5C 1101.83,1135.5 1016.17,1135.5 930.5,1135.5C 930.5,1379.5 930.5,1623.5 930.5,1867.5C 862.833,1867.5 795.167,1867.5 727.5,1867.5 Z"/></g>
<g><path style="opacity:1" fill="#b7d0eb" d="M 1839.5,985.5 C 1840.83,1047.67 1840.83,1110 1839.5,1172.5C 1838.89,1172.38 1838.56,1172.04 1838.5,1171.5C 1839.5,1109.67 1839.83,1047.67 1839.5,985.5 Z"/></g>
<g><path style="opacity:1" fill="#77a7da" d="M 471.5,1135.5 C 556.833,1135.5 642.167,1135.5 727.5,1135.5C 727.5,1379.5 727.5,1623.5 727.5,1867.5C 726.5,1624 726.167,1380.33 726.5,1136.5C 641.332,1136.83 556.332,1136.5 471.5,1135.5 Z"/></g>
<g><path style="opacity:1" fill="#77a7da" d="M 1268.5,1630.5 C 1267.5,1696.66 1267.17,1763 1267.5,1829.5C 1266.17,1763 1266.17,1696.33 1267.5,1629.5C 1268.11,1629.62 1268.44,1629.96 1268.5,1630.5 Z"/></g>
</svg>
