<svg xmlns="http://www.w3.org/2000/svg" width="500" height="400" shape-rendering="geometricPrecision" image-rendering="optimizeQuality" fill-rule="evenodd" xmlns:v="https://vecta.io/nano"><path fill="#563a7d" d="M-.5-.5h500v400H-.5V-.5z"/><path fill="#fdfdfe" d="M175.5 47.5l151 .5c13.319 1.654 22.153 8.821 26.5 21.5v158c-3.608 11.941-11.441 19.441-23.5 22.5h-157c-12.835-5.175-20.002-14.675-21.5-28.5v-148c3.237-13.401 11.404-22.068 24.5-26z"/><path fill="#583c7f" d="M209.5 95.5a1984.87 1984.87 0 0 1 63 .5c17.289 4.066 24.455 14.9 21.5 32.5-2.01 7.524-6.51 13.191-13.5 17 12.66 4.178 18.993 13.011 19 26.5.686 14.302-5.648 23.968-19 29l-13 3a1681.34 1681.34 0 0 1-58 .5v-109z"/><path fill="#fcfcfd" d="M228.5 111.5c13.004-.167 26.004 0 39 .5 5.845 2.512 8.512 7.012 8 13.5-.067 7.567-3.734 12.4-11 14.5-11.995.5-23.995.667-36 .5v-29z"/><path fill="#fefefe" d="M268.5 155.5c8.149 2.157 12.149 7.49 12 16-.105 8.921-4.438 14.254-13 16h-38v-32h39z"/><path fill="#c5bcd2" d="M268.5 155.5h-39v32h38c-12.823.995-25.823 1.329-39 1v-34c13.51-.329 26.844.004 40 1z"/><path fill="#d1cadc" d="M93.5 288.5h-33v61h34c-11.488.995-23.155 1.328-35 1v-63c11.512-.328 22.846.005 34 1z"/><path fill="#faf9fb" d="M93.5 288.5c11.901 1.451 16.734 8.117 14.5 20-1.442 3.775-3.942 6.608-7.5 8.5 7.056 2.422 10.722 7.422 11 15-.438 10.938-6.105 16.771-17 17.5h-34v-61h33z"/><path fill="#f9f8fb" d="M243.5 305.5v7c-2.885-.306-5.552.027-8 1a196.87 196.87 0 0 0 1 28 19.37 19.37 0 0 0 8 1v8a112.97 112.97 0 0 1-15-.5l-3.5-3.5c-1.431-10.922-1.931-21.922-1.5-33h-7v-8h7v-14h11v14h8z"/><path fill="#9988b0" d="M298.5 292.5v13h-8c2.107-.968 4.441-1.302 7-1-.317-4.202.017-8.202 1-12z"/><path fill="#fdfcfd" d="M308.5 292.5v13h9v7h-9c-.327 9.515.006 18.848 1 28 .111.617.444 1.117 1 1.5 2.31.497 4.643.663 7 .5v8a98.43 98.43 0 0 1-14-.5 20.5 20.5 0 0 0-3.5-2.5 201.53 201.53 0 0 1-1.5-34h-8v-8h8v-13c3.333-1.333 6.667-1.333 10 0z"/><path fill="#583d7f" d="M71.5 297.5c6.675-.166 13.342 0 20 .5 6.462 2.942 7.629 7.442 3.5 13.5-.75.626-1.584 1.126-2.5 1.5a220.91 220.91 0 0 1-21 .5v-16z"/><path d="M136.5 303.5c12.528-.831 21.028 4.502 25.5 16 2.672 24.663-8.162 34.83-32.5 30.5-11.62-7.404-15.454-17.904-11.5-31.5 3.401-8.581 9.568-13.581 18.5-15zm50 0c23.14.935 31.64 12.602 25.5 35-6.047 11.469-15.547 15.636-28.5 12.5-10.827-4.315-15.827-12.315-15-24-.103-12.67 5.897-20.503 18-23.5z" fill="#faf9fb"/><path fill="#f9f8fa" d="M264.5 303.5c11.365-1.16 19.032 3.507 23 14-3.945.991-7.945 1.324-12 1 .048-2.792-1.285-4.625-4-5.5-3.333-.667-6.667-.667-10 0-2.667 2.333-2.667 4.667 0 7 6.613 2.212 13.28 4.212 20 6 9.005 6.767 9.338 14.101 1 22-7.352 3.132-15.019 4.132-23 3-7.48-2.456-11.48-7.623-12-15.5h11c.757 5.321 3.923 7.988 9.5 8a20.9 20.9 0 0 0 8.5-2.5c1.482-2.592 1.148-4.925-1-7-7.633-1.458-14.966-3.791-22-7-7.353-8.17-6.353-15.17 3-21a127.96 127.96 0 0 0 8-2.5z"/><path fill="#9887b0" d="M308.5 292.5c.983 3.798 1.317 7.798 1 12 2.885-.306 5.552.027 8 1h-9v-13z"/><path fill="#fafafb" d="M324.5 350.5v-45h9c-.162 2.027.005 4.027.5 6l6.5-6.5a24.36 24.36 0 0 1 10-1.5v11c-8.729-2.095-13.895 1.238-15.5 10-.5 8.66-.666 17.327-.5 26h-10z"/><path fill="#f9f7fa" d="M370.5 303.5c7.273-.228 13.773 1.772 19.5 6 .419 1.172 1.085 2.172 2 3l1 30c1.356.88 2.856 1.214 4.5 1v7c-5.989 2.089-11.322 1.089-16-3-7.737 4.589-15.737 5.089-24 1.5-6.037-4.638-7.537-10.471-4.5-17.5 2.264-2.933 5.098-5.1 8.5-6.5l19-3c3.039-3.805 2.372-6.805-2-9-4.271-1.008-8.271-.508-12 1.5-1.45 1.35-2.117 3.016-2 5h-11c.473-6.773 3.807-11.606 10-14.5 2.536-.186 4.869-.686 7-1.5z"/><path fill="#f9f8fa" d="M423.5 303.5c12.002-.752 19.835 4.582 23.5 16 1.526 8.833.193 17.166-4 25-5.711 6.637-12.877 8.804-21.5 6.5-2.749-1.123-5.249-2.623-7.5-4.5-.5 6.658-.666 13.325-.5 20h-11v-61h10a8.43 8.43 0 0 0 .5 4c2.975-3.189 6.475-5.189 10.5-6z"/><path fill="#b8acc8" d="M333.5 305.5h-9v45c-.996-15.158-1.33-30.491-1-46 3.542-.313 6.875.021 10 1z"/><path fill="#593e7f" d="M135.5 312.5c12.567-.553 18.067 5.447 16.5 18-1.812 10.307-7.645 14.141-17.5 11.5-7.422-7.003-8.922-15.17-4.5-24.5 1.73-1.902 3.563-3.569 5.5-5z"/><path fill="#593e80" d="M186.5 312.5c8.582-1.63 14.082 1.704 16.5 10 2.026 8.937-.807 15.77-8.5 20.5-8.073.875-13.239-2.625-15.5-10.5-1.514-8.304.986-14.97 7.5-20z"/><path fill="#b7acc8" d="M243.5 305.5c.973 2.448 1.306 5.115 1 8h-9c2.448-.973 5.115-1.306 8-1v-7z"/><path fill="#593e7f" d="M420.5 312.5c14.102.645 19.269 7.978 15.5 22-5.509 10.751-12.509 11.751-21 3-4.328-9.878-2.494-18.212 5.5-25z"/><path fill="#a090b6" d="M317.5 312.5c-2.448.973-5.115 1.306-8 1v27c-.994-9.152-1.327-18.485-1-28h9z"/><path fill="#563a7d" d="M71.5 322.5a264.95 264.95 0 0 1 23 .5c3.738 1.399 5.404 4.066 5 8 .402 4.2-1.265 7.2-5 9a264.95 264.95 0 0 1-23 .5v-18z"/><path fill="#5b4081" d="M380.5 328.5c2.378 12.111-2.622 16.611-15 13.5-3.867-3.249-3.867-6.582 0-10 5.045-1.575 10.045-2.741 15-3.5z"/></svg>