<?xml version="1.0" encoding="UTF-8"?>
<!DOCTYPE svg PUBLIC "-//W3C//DTD SVG 1.1//EN" "http://www.w3.org/Graphics/SVG/1.1/DTD/svg11.dtd">
<svg xmlns="http://www.w3.org/2000/svg" version="1.1" width="512px" height="512px" style="shape-rendering:geometricPrecision; text-rendering:geometricPrecision; image-rendering:optimizeQuality; fill-rule:evenodd; clip-rule:evenodd" xmlns:xlink="http://www.w3.org/1999/xlink">
<g><path style="opacity:0.995" fill="#0056d2" d="M 233.5,-0.5 C 248.167,-0.5 262.833,-0.5 277.5,-0.5C 379.978,12.4814 452.144,66.148 494,160.5C 503.099,184.187 508.932,208.521 511.5,233.5C 511.5,248.167 511.5,262.833 511.5,277.5C 498.958,377.77 446.958,449.27 355.5,492C 330.316,502.296 304.316,508.796 277.5,511.5C 262.833,511.5 248.167,511.5 233.5,511.5C 133.231,498.958 61.7312,446.958 19,355.5C 8.70393,330.316 2.20393,304.316 -0.5,277.5C -0.5,262.833 -0.5,248.167 -0.5,233.5C 12.0418,133.231 64.0418,61.7312 155.5,19C 180.673,8.70675 206.673,2.20675 233.5,-0.5 Z"/></g>
<g><path style="opacity:1" fill="#fdfefe" d="M 251.5,95.5 C 306.96,92.0071 353.626,110.34 391.5,150.5C 396.426,155.921 400.759,161.754 404.5,168C 382.602,181.553 360.436,194.719 338,207.5C 330.804,199.637 322.97,192.47 314.5,186C 278.168,164.749 243.501,167.082 210.5,193C 183.439,218.951 175.939,249.785 188,285.5C 209.595,328.604 244.095,345.104 291.5,335C 311.723,328.737 327.723,316.904 339.5,299.5C 361.833,312.833 384.167,326.167 406.5,339.5C 368.912,393.79 316.912,418.957 250.5,415C 183.293,406.111 137.126,370.278 112,307.5C 91.594,236.93 109.094,177.764 164.5,130C 190.396,110.72 219.396,99.2203 251.5,95.5 Z"/></g>
</svg>
