<?xml version="1.0" encoding="UTF-8"?>
<!DOCTYPE svg PUBLIC "-//W3C//DTD SVG 1.1//EN" "http://www.w3.org/Graphics/SVG/1.1/DTD/svg11.dtd">
<svg xmlns="http://www.w3.org/2000/svg" version="1.1" width="512px" height="512px" style="shape-rendering:geometricPrecision; text-rendering:geometricPrecision; image-rendering:optimizeQuality; fill-rule:evenodd; clip-rule:evenodd" xmlns:xlink="http://www.w3.org/1999/xlink">
<g><path style="opacity:1" fill="#fe4d12" d="M 156.5,-0.5 C 189.833,-0.5 223.167,-0.5 256.5,-0.5C 256.5,56.1667 256.5,112.833 256.5,169.5C 227.329,169.169 198.329,169.502 169.5,170.5C 166.061,170.747 162.728,170.414 159.5,169.5C 119.043,162.879 94.2101,139.546 85,99.5C 80.433,54.1203 98.933,22.287 140.5,4C 145.956,2.47318 151.289,0.973182 156.5,-0.5 Z"/></g>
<g><path style="opacity:1" fill="#fe7260" d="M 256.5,-0.5 C 288.833,-0.5 321.167,-0.5 353.5,-0.5C 398.451,10.2918 422.785,38.7918 426.5,85C 423.506,127.324 401.839,154.991 361.5,168C 357.886,168.936 354.22,169.436 350.5,169.5C 342.586,170.467 334.586,170.801 326.5,170.5C 303.167,170.5 279.833,170.5 256.5,170.5C 227.5,170.5 198.5,170.5 169.5,170.5C 198.329,169.502 227.329,169.169 256.5,169.5C 256.5,112.833 256.5,56.1667 256.5,-0.5 Z"/></g>
<g><path style="opacity:0.999" fill="#b559fe" d="M 159.5,169.5 C 162.728,170.414 166.061,170.747 169.5,170.5C 198.5,170.5 227.5,170.5 256.5,170.5C 256.5,193.833 256.5,217.167 256.5,240.5C 256.5,250.5 256.5,260.5 256.5,270.5C 256.5,293.833 256.5,317.167 256.5,340.5C 224.5,340.5 192.5,340.5 160.5,340.5C 123.889,334.39 99.7228,313.723 88,278.5C 78.6563,230.225 96.1563,195.725 140.5,175C 146.928,173.018 153.262,171.185 159.5,169.5 Z"/></g>
<g><path style="opacity:0.997" fill="#03bbfe" d="M 350.5,169.5 C 395.2,177.702 420.7,204.369 427,249.5C 427.27,293.545 406.77,323.045 365.5,338C 330.442,346.534 300.608,337.7 276,311.5C 266.24,299.316 259.74,285.649 256.5,270.5C 256.5,260.5 256.5,250.5 256.5,240.5C 265.5,202.833 288.833,179.5 326.5,170.5C 334.586,170.801 342.586,170.467 350.5,169.5 Z"/></g>
<g><path style="opacity:0.999" fill="#03ce7f" d="M 160.5,340.5 C 192.5,340.5 224.5,340.5 256.5,340.5C 256.667,372.168 256.5,403.835 256,435.5C 249.005,477.326 224.839,502.659 183.5,511.5C 175.167,511.5 166.833,511.5 158.5,511.5C 113.036,501.191 88.3695,472.691 84.5,426C 88.5752,378.433 113.908,349.933 160.5,340.5 Z"/></g>
</svg>
