<?xml version="1.0" encoding="UTF-8"?>
<!DOCTYPE svg PUBLIC "-//W3C//DTD SVG 1.1//EN" "http://www.w3.org/Graphics/SVG/1.1/DTD/svg11.dtd">
<svg xmlns="http://www.w3.org/2000/svg" version="1.1" width="800px" height="800px" style="shape-rendering:geometricPrecision; text-rendering:geometricPrecision; image-rendering:optimizeQuality; fill-rule:evenodd; clip-rule:evenodd" xmlns:xlink="http://www.w3.org/1999/xlink">
<g><path style="opacity:1" fill="#efda4f" d="M -0.5,0.5 C 265.833,0.5 532.167,0.5 798.5,0.5C 798.5,266.833 798.5,533.167 798.5,799.5C 532.167,799.5 265.833,799.5 -0.5,799.5C -0.5,533.167 -0.5,266.833 -0.5,0.5 Z"/></g>
<g><path style="opacity:1" fill="#f9f2bf" d="M -0.5,0.5 C -0.5,0.166667 -0.5,-0.166667 -0.5,-0.5C 266.167,-0.5 532.833,-0.5 799.5,-0.5C 799.5,266.167 799.5,532.833 799.5,799.5C 799.167,799.5 798.833,799.5 798.5,799.5C 798.5,533.167 798.5,266.833 798.5,0.5C 532.167,0.5 265.833,0.5 -0.5,0.5 Z"/></g>
<g><path style="opacity:1" fill="#76703b" d="M 622.5,363.5 C 609.482,363.339 596.482,363.673 583.5,364.5C 590.939,362.978 598.606,362.311 606.5,362.5C 612.011,362.501 617.344,362.834 622.5,363.5 Z"/></g>
<g><path style="opacity:1" fill="#323330" d="M 622.5,363.5 C 663.505,366.339 693.838,385.839 713.5,422C 694.399,434.726 675.066,447.226 655.5,459.5C 650.45,451.279 644.45,443.779 637.5,437C 628.732,430.522 618.898,427.689 608,428.5C 580.648,429.157 568.648,443.157 572,470.5C 572.938,472.488 573.772,474.488 574.5,476.5C 574.427,478.027 575.094,479.027 576.5,479.5C 581.374,485.801 587.374,490.967 594.5,495C 611.598,503.216 628.931,510.883 646.5,518C 665.201,526.044 682.534,536.211 698.5,548.5C 720.79,566.526 732.957,589.86 735,618.5C 735.818,631.226 735.318,643.893 733.5,656.5C 731.928,659.215 730.928,662.215 730.5,665.5C 728.986,669.885 727.32,674.218 725.5,678.5C 724.094,678.973 723.427,679.973 723.5,681.5C 710.709,703.247 692.375,718.414 668.5,727C 638.017,735.954 607.017,737.954 575.5,733C 530.735,724.376 497.402,700.209 475.5,660.5C 477.904,658.115 480.571,655.949 483.5,654C 488.058,651.27 492.725,648.77 497.5,646.5C 499.027,646.573 500.027,645.906 500.5,644.5C 512.302,638.098 523.969,631.431 535.5,624.5C 544.521,639.521 556.521,651.521 571.5,660.5C 571.973,661.906 572.973,662.573 574.5,662.5C 596.662,671.651 618.995,671.817 641.5,663C 658.639,652.645 664.306,637.811 658.5,618.5C 658.573,616.973 657.906,615.973 656.5,615.5C 652.465,607.8 646.465,602.133 638.5,598.5C 638.027,597.094 637.027,596.427 635.5,596.5C 608.892,584.862 582.559,572.695 556.5,560C 504.044,528.665 486.544,483.498 504,424.5C 519.728,390.371 546.228,370.371 583.5,364.5C 596.482,363.673 609.482,363.339 622.5,363.5 Z"/></g>
<g><path style="opacity:1" fill="#897f3e" d="M 433.5,633.5 C 433.5,544.833 433.5,456.167 433.5,367.5C 408.833,367.5 384.167,367.5 359.5,367.5C 359.833,456.002 359.499,544.335 358.5,632.5C 358.5,543.833 358.5,455.167 358.5,366.5C 383.833,366.5 409.167,366.5 434.5,366.5C 434.833,455.668 434.499,544.668 433.5,633.5 Z"/></g>
<g><path style="opacity:1" fill="#323330" d="M 433.5,633.5 C 433.5,634.833 433.5,636.167 433.5,637.5C 432.437,641.639 431.77,645.972 431.5,650.5C 423.672,697.328 396.339,724.995 349.5,733.5C 344.972,733.77 340.639,734.437 336.5,735.5C 320.01,736.281 303.677,735.281 287.5,732.5C 285.898,730.926 283.898,730.259 281.5,730.5C 272.316,727.996 263.649,724.329 255.5,719.5C 255.027,718.094 254.027,717.427 252.5,717.5C 237.073,707.407 224.739,694.407 215.5,678.5C 215.573,676.973 214.906,675.973 213.5,675.5C 212.307,672.948 210.973,670.448 209.5,668C 214.561,664.81 219.561,661.643 224.5,658.5C 226.027,658.573 227.027,657.906 227.5,656.5C 229.833,655.167 232.167,653.833 234.5,652.5C 236.027,652.573 237.027,651.906 237.5,650.5C 248.242,644.136 258.908,637.802 269.5,631.5C 270.442,631.608 271.275,631.941 272,632.5C 278.539,647.03 288.539,658.364 302,666.5C 305.171,667.222 308.338,667.889 311.5,668.5C 314.314,669.165 317.314,669.498 320.5,669.5C 325.107,669.684 329.44,669.017 333.5,667.5C 344.684,664.484 352.184,657.484 356,646.5C 356.943,641.84 357.777,637.173 358.5,632.5C 359.499,544.335 359.833,456.002 359.5,367.5C 384.167,367.5 408.833,367.5 433.5,367.5C 433.5,456.167 433.5,544.833 433.5,633.5 Z"/></g>
<g><path style="opacity:1" fill="#8d833e" d="M 574.5,476.5 C 575.906,476.973 576.573,477.973 576.5,479.5C 575.094,479.027 574.427,478.027 574.5,476.5 Z"/></g>
<g><path style="opacity:1" fill="#8d833e" d="M 635.5,596.5 C 637.027,596.427 638.027,597.094 638.5,598.5C 636.973,598.573 635.973,597.906 635.5,596.5 Z"/></g>
<g><path style="opacity:1" fill="#8d833e" d="M 656.5,615.5 C 657.906,615.973 658.573,616.973 658.5,618.5C 657.094,618.027 656.427,617.027 656.5,615.5 Z"/></g>
<g><path style="opacity:1" fill="#a29642" d="M 433.5,637.5 C 433.665,640.85 433.498,644.183 433,647.5C 432.768,648.737 432.268,649.737 431.5,650.5C 431.77,645.972 432.437,641.639 433.5,637.5 Z"/></g>
<g><path style="opacity:1" fill="#7e763c" d="M 500.5,644.5 C 500.027,645.906 499.027,646.573 497.5,646.5C 497.973,645.094 498.973,644.427 500.5,644.5 Z"/></g>
<g><path style="opacity:1" fill="#7e763c" d="M 237.5,650.5 C 237.027,651.906 236.027,652.573 234.5,652.5C 234.973,651.094 235.973,650.427 237.5,650.5 Z"/></g>
<g><path style="opacity:1" fill="#7e763c" d="M 227.5,656.5 C 227.027,657.906 226.027,658.573 224.5,658.5C 224.973,657.094 225.973,656.427 227.5,656.5 Z"/></g>
<g><path style="opacity:1" fill="#aea044" d="M 733.5,656.5 C 733.472,659.916 732.472,662.916 730.5,665.5C 730.928,662.215 731.928,659.215 733.5,656.5 Z"/></g>
<g><path style="opacity:1" fill="#8d833e" d="M 571.5,660.5 C 573.027,660.427 574.027,661.094 574.5,662.5C 572.973,662.573 571.973,661.906 571.5,660.5 Z"/></g>
<g><path style="opacity:1" fill="#78713b" d="M 333.5,667.5 C 329.44,669.017 325.107,669.684 320.5,669.5C 317.314,669.498 314.314,669.165 311.5,668.5C 318.862,668.635 326.196,668.302 333.5,667.5 Z"/></g>
<g><path style="opacity:1" fill="#8d833e" d="M 213.5,675.5 C 214.906,675.973 215.573,676.973 215.5,678.5C 214.094,678.027 213.427,677.027 213.5,675.5 Z"/></g>
<g><path style="opacity:1" fill="#8d833e" d="M 725.5,678.5 C 725.573,680.027 724.906,681.027 723.5,681.5C 723.427,679.973 724.094,678.973 725.5,678.5 Z"/></g>
<g><path style="opacity:1" fill="#8d833e" d="M 252.5,717.5 C 254.027,717.427 255.027,718.094 255.5,719.5C 253.973,719.573 252.973,718.906 252.5,717.5 Z"/></g>
<g><path style="opacity:1" fill="#847c3d" d="M 281.5,730.5 C 283.898,730.259 285.898,730.926 287.5,732.5C 285.214,732.405 283.214,731.738 281.5,730.5 Z"/></g>
<g><path style="opacity:1" fill="#a19542" d="M 349.5,733.5 C 348.737,734.268 347.737,734.768 346.5,735C 343.183,735.498 339.85,735.665 336.5,735.5C 340.639,734.437 344.972,733.77 349.5,733.5 Z"/></g>
</svg>
