<?xml version="1.0" encoding="UTF-8"?>
<!DOCTYPE svg PUBLIC "-//W3C//DTD SVG 1.1//EN" "http://www.w3.org/Graphics/SVG/1.1/DTD/svg11.dtd">
<svg xmlns="http://www.w3.org/2000/svg" version="1.1" width="640px" height="640px" style="shape-rendering:geometricPrecision; text-rendering:geometricPrecision; image-rendering:optimizeQuality; fill-rule:evenodd; clip-rule:evenodd" xmlns:xlink="http://www.w3.org/1999/xlink">
<g><path style="opacity:0.994" fill="#0374b3" d="M 42.5,0.5 C 227.167,0.333334 411.834,0.500001 596.5,1C 619.463,4.63091 633.296,17.7976 638,40.5C 638.667,226.167 638.667,411.833 638,597.5C 633.087,620.079 619.254,633.579 596.5,638C 411.833,638.667 227.167,638.667 42.5,638C 23.4098,634.908 10.2431,624.408 3,606.5C 2.2057,603.529 1.53904,600.529 1,597.5C 0.333333,411.833 0.333333,226.167 1,40.5C 5.90611,17.7583 19.7394,4.42499 42.5,0.5 Z"/></g>
<g><path style="opacity:1" fill="#fdfefe" d="M 140.5,88.5 C 170.834,89.7457 189.667,105.079 197,134.5C 199.624,156.4 192.457,174.233 175.5,188C 149.089,203.918 124.589,201.418 102,180.5C 84.8055,157.323 84.1389,133.656 100,109.5C 110.639,96.7655 124.139,89.7655 140.5,88.5 Z"/></g>
<g><path style="opacity:1" fill="#fefefe" d="M 249.5,541.5 C 250.499,441.335 250.833,341.001 250.5,240.5C 279.833,240.5 309.167,240.5 338.5,240.5C 339.167,254.006 339.833,267.673 340.5,281.5C 358.851,252.644 385.184,236.477 419.5,233C 440.797,231.185 461.797,233.852 482.5,241C 510.501,253.446 528.334,274.612 536,304.5C 539.823,319.264 542.157,334.264 543,349.5C 543.5,414.166 543.667,478.832 543.5,543.5C 512.167,543.5 480.833,543.5 449.5,543.5C 449.667,487.499 449.5,431.499 449,375.5C 447.697,324.438 422.531,305.938 373.5,320C 358.078,328.636 348.911,341.803 346,359.5C 345.17,364.143 344.503,368.81 344,373.5C 343.667,429.833 343.333,486.167 343,542.5C 327.406,543.163 311.739,543.496 296,543.5C 280.152,543.499 264.652,542.833 249.5,541.5 Z"/></g>
<g><path style="opacity:1" fill="#aed3e6" d="M 96.5,240.5 C 96.5,341.167 96.5,441.833 96.5,542.5C 127.5,542.5 158.5,542.5 189.5,542.5C 158.338,543.498 127.004,543.832 95.5,543.5C 95.1672,442.332 95.5006,341.332 96.5,240.5 Z"/></g>
<g><path style="opacity:1" fill="#fefefe" d="M 96.5,240.5 C 127.074,240.171 157.574,240.504 188,241.5C 188.167,341.668 188.667,441.668 189.5,541.5C 189.5,541.833 189.5,542.167 189.5,542.5C 158.5,542.5 127.5,542.5 96.5,542.5C 96.5,441.833 96.5,341.167 96.5,240.5 Z"/></g>
<g><path style="opacity:1" fill="#e3f0f6" d="M 96.5,240.5 C 127.329,239.502 158.329,239.169 189.5,239.5C 189.5,340.167 189.5,440.833 189.5,541.5C 188.667,441.668 188.167,341.668 188,241.5C 157.574,240.504 127.074,240.171 96.5,240.5 Z"/></g>
<g><path style="opacity:1" fill="#e3f0f6" d="M 338.5,240.5 C 309.167,240.5 279.833,240.5 250.5,240.5C 250.833,341.001 250.499,441.335 249.5,541.5C 249.5,440.833 249.5,340.167 249.5,239.5C 279.338,239.169 309.005,239.502 338.5,240.5 Z"/></g>
</svg>
