<?xml version="1.0" encoding="UTF-8"?>
<!DOCTYPE svg PUBLIC "-//W3C//DTD SVG 1.1//EN" "http://www.w3.org/Graphics/SVG/1.1/DTD/svg11.dtd">
<svg xmlns="http://www.w3.org/2000/svg" version="1.1" width="646px" height="646px" style="shape-rendering:geometricPrecision; text-rendering:geometricPrecision; image-rendering:optimizeQuality; fill-rule:evenodd; clip-rule:evenodd" xmlns:xlink="http://www.w3.org/1999/xlink">
<g><path style="opacity:1" fill="#e32e37" d="M 55.5,-0.5 C 233.5,-0.5 411.5,-0.5 589.5,-0.5C 620.5,5.83333 639.167,24.5 645.5,55.5C 645.5,233.5 645.5,411.5 645.5,589.5C 639.167,620.5 620.5,639.167 589.5,645.5C 411.5,645.5 233.5,645.5 55.5,645.5C 24.5,639.167 5.83333,620.5 -0.5,589.5C -0.5,411.5 -0.5,233.5 -0.5,55.5C 5.83333,24.5 24.5,5.83333 55.5,-0.5 Z"/></g>
<g><path style="opacity:1" fill="#fce0df" d="M 184.5,250.5 C 184.5,250.833 184.5,251.167 184.5,251.5C 139.167,251.5 93.8333,251.5 48.5,251.5C 48.5,296.833 48.5,342.167 48.5,387.5C 48.1667,387.5 47.8333,387.5 47.5,387.5C 47.5,341.833 47.5,296.167 47.5,250.5C 93.1667,250.5 138.833,250.5 184.5,250.5 Z"/></g>
<g><path style="opacity:1" fill="#fcdada" d="M 391.5,251.5 C 459.998,250.501 528.665,250.167 597.5,250.5C 597.5,296.5 597.5,342.5 597.5,388.5C 585.988,388.828 574.654,388.495 563.5,387.5C 574.5,387.5 585.5,387.5 596.5,387.5C 596.5,342.167 596.5,296.833 596.5,251.5C 528.167,251.5 459.833,251.5 391.5,251.5 Z"/></g>
<g><path style="opacity:1" fill="#fefefe" d="M 184.5,251.5 C 184.5,296.833 184.5,342.167 184.5,387.5C 173.167,387.5 161.833,387.5 150.5,387.5C 150.5,353.167 150.5,318.833 150.5,284.5C 138.988,284.172 127.654,284.505 116.5,285.5C 116.5,318.833 116.5,352.167 116.5,385.5C 94.0635,387.473 71.3969,388.14 48.5,387.5C 48.5,342.167 48.5,296.833 48.5,251.5C 93.8333,251.5 139.167,251.5 184.5,251.5 Z"/></g>
<g><path style="opacity:1" fill="#f4a1a3" d="M 184.5,250.5 C 185.499,296.33 185.832,342.33 185.5,388.5C 173.655,388.828 161.988,388.495 150.5,387.5C 161.833,387.5 173.167,387.5 184.5,387.5C 184.5,342.167 184.5,296.833 184.5,251.5C 184.5,251.167 184.5,250.833 184.5,250.5 Z"/></g>
<g><path style="opacity:1" fill="#fffefe" d="M 288.5,388.5 C 287.505,399.321 287.172,410.321 287.5,421.5C 264.833,421.5 242.167,421.5 219.5,421.5C 219.5,364.5 219.5,307.5 219.5,250.5C 265.167,250.5 310.833,250.5 356.5,250.5C 356.5,296.5 356.5,342.5 356.5,388.5C 333.833,388.5 311.167,388.5 288.5,388.5 Z"/></g>
<g><path style="opacity:1" fill="#fefefe" d="M 391.5,251.5 C 459.833,251.5 528.167,251.5 596.5,251.5C 596.5,296.833 596.5,342.167 596.5,387.5C 585.5,387.5 574.5,387.5 563.5,387.5C 563.5,353.167 563.5,318.833 563.5,284.5C 551.833,284.5 540.167,284.5 528.5,284.5C 528.5,318.833 528.5,353.167 528.5,387.5C 517.167,387.5 505.833,387.5 494.5,387.5C 494.5,353.167 494.5,318.833 494.5,284.5C 482.988,284.172 471.654,284.505 460.5,285.5C 459.502,319.329 459.168,353.329 459.5,387.5C 436.833,387.5 414.167,387.5 391.5,387.5C 391.5,342.167 391.5,296.833 391.5,251.5 Z"/></g>
<g><path style="opacity:0.996" fill="#eb5b5e" d="M 116.5,285.5 C 127.654,284.505 138.988,284.172 150.5,284.5C 150.5,318.833 150.5,353.167 150.5,387.5C 149.502,353.671 149.168,319.671 149.5,285.5C 138.5,285.5 127.5,285.5 116.5,285.5 Z"/></g>
<g><path style="opacity:0.996" fill="#ef6f6f" d="M 288.5,285.5 C 299.654,284.505 310.988,284.172 322.5,284.5C 322.5,307.5 322.5,330.5 322.5,353.5C 310.833,353.5 299.167,353.5 287.5,353.5C 287.169,330.661 287.503,307.994 288.5,285.5 Z"/></g>
<g><path style="opacity:1" fill="#e22d36" d="M 288.5,285.5 C 299.5,285.5 310.5,285.5 321.5,285.5C 321.5,307.833 321.5,330.167 321.5,352.5C 310.5,352.5 299.5,352.5 288.5,352.5C 288.5,330.167 288.5,307.833 288.5,285.5 Z"/></g>
<g><path style="opacity:0.996" fill="#ed6767" d="M 460.5,285.5 C 471.654,284.505 482.988,284.172 494.5,284.5C 494.5,318.833 494.5,353.167 494.5,387.5C 505.833,387.5 517.167,387.5 528.5,387.5C 517.012,388.495 505.345,388.828 493.5,388.5C 493.5,354.167 493.5,319.833 493.5,285.5C 482.5,285.5 471.5,285.5 460.5,285.5 Z"/></g>
<g><path style="opacity:1" fill="#f08184" d="M 563.5,387.5 C 562.502,353.671 562.168,319.671 562.5,285.5C 551.5,285.5 540.5,285.5 529.5,285.5C 529.832,319.671 529.498,353.671 528.5,387.5C 528.5,353.167 528.5,318.833 528.5,284.5C 540.167,284.5 551.833,284.5 563.5,284.5C 563.5,318.833 563.5,353.167 563.5,387.5 Z"/></g>
<g><path style="opacity:1" fill="#f49c9e" d="M 116.5,385.5 C 116.5,386.5 116.5,387.5 116.5,388.5C 93.3273,388.831 70.3273,388.498 47.5,387.5C 47.8333,387.5 48.1667,387.5 48.5,387.5C 71.3969,388.14 94.0635,387.473 116.5,385.5 Z"/></g>
<g><path style="opacity:1" fill="#f49ea0" d="M 460.5,285.5 C 460.5,319.833 460.5,354.167 460.5,388.5C 437.327,388.831 414.327,388.498 391.5,387.5C 414.167,387.5 436.833,387.5 459.5,387.5C 459.168,353.329 459.502,319.329 460.5,285.5 Z"/></g>
<g><path style="opacity:1" fill="#fbd0d0" d="M 288.5,388.5 C 288.5,399.833 288.5,411.167 288.5,422.5C 265.327,422.831 242.327,422.498 219.5,421.5C 242.167,421.5 264.833,421.5 287.5,421.5C 287.172,410.321 287.505,399.321 288.5,388.5 Z"/></g>
</svg>
