<?xml version="1.0" encoding="UTF-8"?>
<!DOCTYPE svg PUBLIC "-//W3C//DTD SVG 1.1//EN" "http://www.w3.org/Graphics/SVG/1.1/DTD/svg11.dtd">
<svg xmlns="http://www.w3.org/2000/svg" version="1.1" width="160px" height="160px" style="shape-rendering:geometricPrecision; text-rendering:geometricPrecision; image-rendering:optimizeQuality; fill-rule:evenodd; clip-rule:evenodd" xmlns:xlink="http://www.w3.org/1999/xlink">
<g><path style="opacity:1" fill="#fdfdfc" d="M -0.5,-0.5 C 52.8333,-0.5 106.167,-0.5 159.5,-0.5C 159.5,52.8333 159.5,106.167 159.5,159.5C 106.167,159.5 52.8333,159.5 -0.5,159.5C -0.5,106.167 -0.5,52.8333 -0.5,-0.5 Z"/></g>
<g><path style="opacity:1" fill="#f8ad00" d="M 48.5,0.5 C 48.5,16.5 48.5,32.5 48.5,48.5C 32.5,48.5 16.5,48.5 0.5,48.5C 0.5,32.5 0.5,16.5 0.5,0.5C 16.5,0.5 32.5,0.5 48.5,0.5 Z"/></g>
<g><path style="opacity:1" fill="#f8ad00" d="M 108.5,0.5 C 124.5,0.5 140.5,0.5 156.5,0.5C 156.5,16.5 156.5,32.5 156.5,48.5C 156.5,32.5 156.5,16.5 156.5,0.5C 140.5,0.5 124.5,0.5 108.5,0.5 Z"/></g>
<g><path style="opacity:1" fill="#fbc344" d="M 48.5,0.5 C 49.4964,16.6581 49.8298,32.9915 49.5,49.5C 32.9915,49.8298 16.6581,49.4964 0.5,48.5C 16.5,48.5 32.5,48.5 48.5,48.5C 48.5,32.5 48.5,16.5 48.5,0.5 Z"/></g>
<g><path style="opacity:1" fill="#fdcf6e" d="M 54.5,0.5 C 54.5,16.5 54.5,32.5 54.5,48.5C 70.5,48.5 86.5,48.5 102.5,48.5C 102.5,32.5 102.5,16.5 102.5,0.5C 103.496,16.6581 103.83,32.9915 103.5,49.5C 86.8333,49.5 70.1667,49.5 53.5,49.5C 53.1702,32.9915 53.5036,16.6581 54.5,0.5 Z"/></g>
<g><path style="opacity:1" fill="#f8ad00" d="M 54.5,0.5 C 70.5,0.5 86.5,0.5 102.5,0.5C 102.5,16.5 102.5,32.5 102.5,48.5C 86.5,48.5 70.5,48.5 54.5,48.5C 54.5,32.5 54.5,16.5 54.5,0.5 Z"/></g>
<g><path style="opacity:1" fill="#fbc344" d="M 108.5,0.5 C 108.5,16.5 108.5,32.5 108.5,48.5C 124.5,48.5 140.5,48.5 156.5,48.5C 140.342,49.4964 124.009,49.8298 107.5,49.5C 107.17,32.9915 107.504,16.6581 108.5,0.5 Z"/></g>
<g><path style="opacity:1" fill="#f9ae0b" d="M 107.5,54.5 C 123.833,54.5 140.167,54.5 156.5,54.5C 156.5,70.8333 156.5,87.1667 156.5,103.5C 140.167,103.5 123.833,103.5 107.5,103.5C 107.5,87.1667 107.5,70.8333 107.5,54.5 Z"/></g>
<g><path style="opacity:1" fill="#b6b6b6" d="M 54.5,54.5 C 54.5,70.5 54.5,86.5 54.5,102.5C 70.5,102.5 86.5,102.5 102.5,102.5C 102.5,86.5 102.5,70.5 102.5,54.5C 103.496,70.6581 103.83,86.9915 103.5,103.5C 86.8333,103.5 70.1667,103.5 53.5,103.5C 53.1702,86.9915 53.5036,70.6581 54.5,54.5 Z"/></g>
<g><path style="opacity:1" fill="#4d4e4d" d="M 54.5,54.5 C 70.5,54.5 86.5,54.5 102.5,54.5C 102.5,70.5 102.5,86.5 102.5,102.5C 86.5,102.5 70.5,102.5 54.5,102.5C 54.5,86.5 54.5,70.5 54.5,54.5 Z"/></g>
<g><path style="opacity:1" fill="#4d4e4d" d="M 0.5,108.5 C 16.5,108.5 32.5,108.5 48.5,108.5C 48.5,124.5 48.5,140.5 48.5,156.5C 48.5,140.5 48.5,124.5 48.5,108.5C 32.5,108.5 16.5,108.5 0.5,108.5 Z"/></g>
<g><path style="opacity:1" fill="#7c7c7c" d="M 0.5,108.5 C 16.6581,107.504 32.9915,107.17 49.5,107.5C 49.8298,124.009 49.4964,140.342 48.5,156.5C 48.5,140.5 48.5,124.5 48.5,108.5C 32.5,108.5 16.5,108.5 0.5,108.5 Z"/></g>
<g><path style="opacity:1" fill="#4e4e4e" d="M 54.5,107.5 C 70.5,107.5 86.5,107.5 102.5,107.5C 102.5,123.833 102.5,140.167 102.5,156.5C 86.5,156.5 70.5,156.5 54.5,156.5C 54.5,140.167 54.5,123.833 54.5,107.5 Z"/></g>
<g><path style="opacity:1" fill="#7c7c7c" d="M 156.5,108.5 C 140.5,108.5 124.5,108.5 108.5,108.5C 108.5,124.5 108.5,140.5 108.5,156.5C 107.504,140.342 107.17,124.009 107.5,107.5C 124.009,107.17 140.342,107.504 156.5,108.5 Z"/></g>
<g><path style="opacity:1" fill="#4d4e4d" d="M 156.5,108.5 C 156.5,124.5 156.5,140.5 156.5,156.5C 140.5,156.5 124.5,156.5 108.5,156.5C 108.5,140.5 108.5,124.5 108.5,108.5C 124.5,108.5 140.5,108.5 156.5,108.5 Z"/></g>
</svg>
