<?xml version="1.0" encoding="UTF-8"?>
<!DOCTYPE svg PUBLIC "-//W3C//DTD SVG 1.1//EN" "http://www.w3.org/Graphics/SVG/1.1/DTD/svg11.dtd">
<svg xmlns="http://www.w3.org/2000/svg" version="1.1" width="320px" height="320px" style="shape-rendering:geometricPrecision; text-rendering:geometricPrecision; image-rendering:optimizeQuality; fill-rule:evenodd; clip-rule:evenodd" xmlns:xlink="http://www.w3.org/1999/xlink">
<g><path style="opacity:0.992" fill="#cd669a" d="M 138.5,-0.5 C 138.833,-0.5 139.167,-0.5 139.5,-0.5C 139.833,0.833333 140.167,0.833333 140.5,-0.5C 153.5,-0.5 166.5,-0.5 179.5,-0.5C 257.833,14.5 304.5,61.1667 319.5,139.5C 319.5,152.833 319.5,166.167 319.5,179.5C 304.623,257.377 258.29,304.043 180.5,319.5C 166.833,319.5 153.167,319.5 139.5,319.5C 61.1667,304.5 14.5,257.833 -0.5,179.5C -0.5,165.833 -0.5,152.167 -0.5,138.5C 14.8333,61.1667 61.1667,14.8333 138.5,-0.5 Z"/></g>
<g><path style="opacity:1" fill="#fefcfd" d="M 190.5,38.5 C 202.919,38.125 215.252,38.9583 227.5,41C 258.379,49.2807 268.213,68.4474 257,98.5C 242.971,126.527 220.471,143.027 189.5,148C 178.196,149.388 166.863,149.721 155.5,149C 147.348,147.007 140.514,142.84 135,136.5C 133.092,133.794 132.259,130.794 132.5,127.5C 133.552,127.351 134.552,127.517 135.5,128C 142.62,135.123 151.286,138.623 161.5,138.5C 193.757,137.625 219.257,124.292 238,98.5C 249.719,77.2812 243.885,64.1145 220.5,59C 202.342,56.8999 184.675,58.8999 167.5,65C 138.375,75.2941 113.209,91.4608 92,113.5C 76.9108,135.271 79.7442,154.437 100.5,171C 111.747,178.909 122.413,187.576 132.5,197C 145.072,195.544 157.739,195.211 170.5,196C 187.005,199.18 197.839,208.68 203,224.5C 204.933,236.054 200.766,244.554 190.5,250C 188.866,250.494 187.199,250.66 185.5,250.5C 185.351,249.448 185.517,248.448 186,247.5C 197.569,240.339 199.569,231.005 192,219.5C 187.654,214.826 182.487,211.326 176.5,209C 165.331,205.5 153.997,204.833 142.5,207C 140.145,208.865 139.978,211.031 142,213.5C 146.41,245.196 133.91,267.03 104.5,279C 78.5235,285.67 66.6902,275.836 69,249.5C 72.7781,238.378 79.6114,229.545 89.5,223C 99.1521,215.56 109.485,209.227 120.5,204C 103.812,192.982 87.9782,180.816 73,167.5C 66.2127,160.262 61.2127,151.929 58,142.5C 56.8591,135.184 57.8591,128.184 61,121.5C 70.925,102.572 84.7583,87.0716 102.5,75C 129.487,57.0011 158.821,44.8344 190.5,38.5 Z"/></g>
<g><path style="opacity:1" fill="#ce699b" d="M 125.5,213.5 C 126.5,213.5 127.5,213.5 128.5,213.5C 131.714,236.759 122.714,253.259 101.5,263C 90.7446,266.236 86.2446,262.403 88,251.5C 91.4635,241.037 97.6302,232.537 106.5,226C 112.556,221.312 118.889,217.146 125.5,213.5 Z"/></g>
</svg>
