<?xml version="1.0" encoding="UTF-8"?>
<!DOCTYPE svg PUBLIC "-//W3C//DTD SVG 1.1//EN" "http://www.w3.org/Graphics/SVG/1.1/DTD/svg11.dtd">
<svg xmlns="http://www.w3.org/2000/svg" version="1.1" width="2048px" height="2048px" style="shape-rendering:geometricPrecision; text-rendering:geometricPrecision; image-rendering:optimizeQuality; fill-rule:evenodd; clip-rule:evenodd" xmlns:xlink="http://www.w3.org/1999/xlink">
<g><path style="opacity:0.997" fill="#00b7d6" d="M 1001.5,462.5 C 1074.67,459.645 1146.33,470.145 1216.5,494C 1274.43,516.013 1326.77,547.013 1373.5,587C 1383.2,596.37 1393.2,605.37 1403.5,614C 1439.83,651 1476.17,688 1512.5,725C 1543.44,752.981 1579.11,772.981 1619.5,785C 1703.64,811.553 1782.97,800.886 1857.5,753C 1898.25,724.917 1933.08,690.75 1962,650.5C 1956.45,680.822 1947.45,710.156 1935,738.5C 1903.67,814.024 1857.5,878.858 1796.5,933C 1746.34,974.739 1689.01,1002.07 1624.5,1015C 1459.44,1051.45 1307.1,1021.12 1167.5,924C 1158.54,917.379 1149.88,910.379 1141.5,903C 1105.47,866.303 1068.8,830.303 1031.5,795C 1006.55,772.039 979.881,751.373 951.5,733C 849.728,670.112 748.395,672.112 647.5,739C 609.248,765.918 577.081,798.751 551,837.5C 569.653,727.657 620.819,636.49 704.5,564C 765.64,515.59 834.973,484.923 912.5,472C 942.137,467.111 971.804,463.944 1001.5,462.5 Z"/></g>
<g><path style="opacity:0.997" fill="#00b7d6" d="M 541.5,1024.5 C 609.754,1022.66 676.754,1032.49 742.5,1054C 803.22,1076.14 857.887,1108.14 906.5,1150C 917.167,1159.67 927.833,1169.33 938.5,1179C 969.197,1210.03 999.53,1241.36 1029.5,1273C 1043.24,1286.08 1057.58,1298.41 1072.5,1310C 1131.52,1348.26 1196.19,1364.92 1266.5,1360C 1308.63,1355.07 1347.63,1341.4 1383.5,1319C 1426.46,1290.38 1463.29,1255.21 1494,1213.5C 1472.97,1306.57 1430.64,1388.23 1367,1458.5C 1311.13,1519.2 1242.63,1558.37 1161.5,1576C 991.095,1614.76 834.761,1583.09 692.5,1481C 686.352,1475.43 680.019,1470.1 673.5,1465C 641.915,1434.42 610.582,1403.42 579.5,1372C 548.423,1341.91 514.756,1315.24 478.5,1292C 382.174,1234.86 286.174,1235.53 190.5,1294C 147.045,1321.79 111.212,1357.29 83,1400.5C 101.264,1290.77 152.097,1199.61 235.5,1127C 297.196,1078.07 367.196,1047.07 445.5,1034C 477.457,1028.81 509.457,1025.64 541.5,1024.5 Z"/></g>
</svg>
