<svg xmlns="http://www.w3.org/2000/svg" width="300" height="300" shape-rendering="geometricPrecision" image-rendering="optimizeQuality" fill-rule="evenodd" xmlns:v="https://vecta.io/nano"><path fill="#fbe26a" d="M213.5-.5h6c2.405 3.653 2.405 7.32 0 11-.077-1.25-.744-2.083-2-2.5-1.68-.034-3.18-.201-4.5-.5-4.056 1.422-8.056 2.422-12 3-1.016-1.134-1.683-.801-2 1l-1-2-11 3c-1.395-1.315-2.395-.981-3 1l-1-2c-1.676.561-3.009 1.561-4 3l-1-2-7 2c-1.016-1.134-1.683-.801-2 1-.875-2.013-2.209-2.013-4 0-2.751-.458-5.751-.458-9 0-.667 2.667-1.333 2.667-2 0l-2 2c-2.769.146-5.769-.187-9-1l-12 4c-2.241-1.273-4.741-.94-7.5 1-2.866-.054-5.699-.054-8.5 0a13.81 13.81 0 0 0-6.5 4c.562-4.062 2.896-6.229 7-6.5l98-19.5z"/><path fill="#fee24e" d="M219.5 10.5c.237 1.291-.096 2.291-1 3l-2.5-1c-.667 2.667-1.333 2.667-2 0l-5 3c-1.309-2.391-2.309-2.391-3 0-1.16-2.297-2.16-1.964-3 1l-1-2-5 3-1-3c-.869 3.263-2.203 3.596-4 1-.667 2.667-1.333 2.667-2 0-.359 3.044-1.026 3.378-2 1l-2 2c-3.601-.736-6.935-.736-10 0-.667 2.667-1.333 2.667-2 0l-2 2c-1.889-.597-3.722-.931-5.5-1-1.041 2.491-1.874 2.491-2.5 0l-4 3c-.691-2.391-1.691-2.391-3 0-1.398-.551-2.732-.884-4-1-.626 2.491-1.459 2.491-2.5 0-1.634.468-2.8 1.468-3.5 3l-1-2-5 3c-.308-.808-.808-1.475-1.5-2-.925 1.14-1.759 1.14-2.5 0l-5 3-1-2-7 3-3-1c-.667 2.667-1.333 2.667-2 0-1.943.815-3.943 1.815-6 3l-2-2a127.13 127.13 0 0 0-2.5 10v-12a13.81 13.81 0 0 1 6.5-4h8.5c2.759-1.94 5.259-2.273 7.5-1l12-4c3.231.813 6.231 1.146 9 1l2-2c.667 2.667 1.333 2.667 2 0 3.249-.458 6.249-.458 9 0 1.791-2.013 3.125-2.013 4 0 .317-1.801.984-2.134 2-1l7-2 1 2c.991-1.439 2.324-2.439 4-3l1 2c.605-1.981 1.605-2.315 3-1l11-3 1 2c.317-1.801.984-2.134 2-1 3.944-.578 7.944-1.578 12-3 1.32.299 2.82.466 4.5.5 1.256.417 1.923 1.25 2 2.5z"/><path fill="#fedb35" d="M218.5 13.5c-1.759 8.595-4.092 16.929-7 25-.876.131-1.543-.203-2-1 1.044-2.268 1.211-4.601.5-7-1.402 2.473-2.902 2.473-4.5 0-2.589 1.657-5.256 1.991-8 1-1.017 2.528-2.184 2.528-3.5 0-.691 2.391-1.691 2.391-3 0a7.29 7.29 0 0 1-2 3c-1.889-.597-3.722-.931-5.5-1-1.098 3.861-1.931 3.861-2.5 0a6.54 6.54 0 0 0-3 3c-.875-2.013-2.209-2.013-4 0-1.533-.444-3.033-.777-4.5-1a156.98 156.98 0 0 0-8.5 3c-2.184.608-4.184-.059-6-2-.359 3.044-1.026 3.378-2 1-1.439 1.514-2.939 1.847-4.5 1-1.041 2.491-1.874 2.491-2.5 0-.928 1.835-2.094 2.168-3.5 1-1.098 3.861-1.931 3.861-2.5 0a6.54 6.54 0 0 0-3 3c-.875-2.013-2.209-2.013-4 0-2.232-.687-4.398-1.021-6.5-1-1.017 2.528-2.184 2.528-3.5 0-.317 1.801-.984 2.134-2 1-2 2.667-4 2.667-6 0 .685 3.811-.482 4.478-3.5 2-.586.209-1.086.543-1.5 1-.535 3.538-1.368 6.872-2.5 10v-6c.053-4.326.386-8.326 1-12a127.13 127.13 0 0 1 2.5-10l2 2c2.057-1.185 4.057-2.185 6-3 .667 2.667 1.333 2.667 2 0l3 1 7-3 1 2c1.616-1.045 3.283-2.045 5-3 .741 1.14 1.575 1.14 2.5 0 .692.525 1.192 1.192 1.5 2 1.616-1.045 3.283-2.045 5-3l1 2c.7-1.532 1.866-2.532 3.5-3 1.041 2.491 1.874 2.491 2.5 0 1.268.116 2.602.449 4 1 1.309-2.391 2.309-2.391 3 0l4-3c.626 2.491 1.459 2.491 2.5 0 1.778.069 3.611.403 5.5 1l2-2c.667 2.667 1.333 2.667 2 0 3.065-.736 6.399-.736 10 0l2-2c.974 2.378 1.641 2.044 2-1 .667 2.667 1.333 2.667 2 0 1.797 2.596 3.131 2.263 4-1l1 3c1.616-1.045 3.283-2.045 5-3l1 2c.84-2.964 1.84-3.297 3-1 .691-2.391 1.691-2.391 3 0l5-3c.667 2.667 1.333 2.667 2 0l2.5 1z"/><path fill="#fed62e" d="M211.5 38.5a35.15 35.15 0 0 1-2 8l-3 6c-1.236.489-2.736.489-4.5 0-.667 2.667-1.333 2.667-2 0-.605 1.981-1.605 2.315-3 1-.739 1.074-1.739 1.741-3 2-2.535.19-4.868-.143-7-1l-1 2c-1.268-.116-2.602-.449-4-1a13.91 13.91 0 0 0-4 3l-2-2-5 3c-1.458-1.247-2.958-1.247-4.5 0-1.041-2.491-1.874-2.491-2.5 0-1.016-1.134-1.683-.801-2 1l-1-2c-1.397 2.807-3.231 3.307-5.5 1.5 1.333-1 1.333-2 0-3 2.437-1.279 2.937-2.779 1.5-4.5-1.982.594-3.816 1.76-5.5 3.5.757 1.512 1.757 2.846 3 4-1.897 1.11-3.73 1.276-5.5.5-2.191 2.982-4.524 3.316-7 1-.667 2.667-1.333 2.667-2 0a6.54 6.54 0 0 1-3 3c-1.458-1.247-2.958-1.247-4.5 0-.692-.525-1.192-1.192-1.5-2-.605 1.981-1.605 2.315-3 1a7.29 7.29 0 0 0-2 3c-.875-2.013-2.209-2.013-4 0l-2-2c-1.912 1.192-3.912 2.192-6 3l-2-2c-.71 1.473-1.876 2.14-3.5 2-.17-1.322.163-2.489 1-3.5-.544-.717-1.211-1.217-2-1.5v-7c1.132-3.128 1.965-6.462 2.5-10 .414-.457.914-.791 1.5-1 3.018 2.478 4.185 1.811 3.5-2 2 2.667 4 2.667 6 0 1.016 1.134 1.683.801 2-1 1.316 2.528 2.483 2.528 3.5 0 2.102-.021 4.268.313 6.5 1 1.791-2.013 3.125-2.013 4 0a6.54 6.54 0 0 1 3-3c.569 3.861 1.402 3.861 2.5 0 1.406 1.168 2.572.835 3.5-1 .626 2.491 1.459 2.491 2.5 0 1.561.847 3.061.514 4.5-1 .974 2.378 1.641 2.044 2-1 1.816 1.941 3.816 2.608 6 2a156.98 156.98 0 0 1 8.5-3c1.467.223 2.967.556 4.5 1 1.791-2.013 3.125-2.013 4 0a6.54 6.54 0 0 1 3-3c.569 3.861 1.402 3.861 2.5 0 1.778.069 3.611.403 5.5 1a7.29 7.29 0 0 0 2-3c1.309 2.391 2.309 2.391 3 0 1.316 2.528 2.483 2.528 3.5 0 2.744.991 5.411.657 8-1 1.598 2.473 3.098 2.473 4.5 0 .711 2.399.544 4.732-.5 7 .457.797 1.124 1.131 2 1z"/><path fill="#8c73fe" d="M295.5 33.5c.059 2.264-.774 2.598-2.5 1l-2 3c-3.11-1.173-3.277-.673-.5 1.5l-2.5 2.5c-2.184-2.371-4.35-2.204-6.5.5 1.168 1.871.668 3.371-1.5 4.5-1.011-.837-2.178-1.17-3.5-1a8.43 8.43 0 0 1-.5 4c-.308-.808-.808-1.475-1.5-2 .193 1.188-.307 2.522-1.5 4-.974-2.378-1.641-2.044-2 1l-1-2c-.707 1.581-1.54 3.081-2.5 4.5-3.13 2.304-6.464 4.137-10 5.5.976 1.623.476 2.957-1.5 4l-1-1c-.667 4-1.333 4-2 0l-2 4c-.974-2.378-1.641-2.044-2 1l-1-2c-.5 1.167-1.333 2-2.5 2.5l2 1c-1.632 1.31-3.299 1.81-5 1.5.382 2.375-.118 4.708-1.5 7-.383-.556-.883-.889-1.5-1 1.522-3.3.522-5.633-3-7a192.44 192.44 0 0 1-27 5 .91.91 0 0 1-1-.5c1.167-.5 2-1.333 2.5-2.5h3c.667-4 1.333-4 2 0 .59-2.454 1.424-4.121 2.5-5 3.83-.985 6.663-3.319 8.5-7 1.049 1.017 2.216 1.184 3.5.5l-1-1c1.201-.903 2.035-2.069 2.5-3.5 2.173 2.777 2.673 2.61 1.5-.5l4-1c-.84-1.666-.34-1.833 1.5-.5a6.86 6.86 0 0 0 3-5l1 2c.724-2.459 2.057-3.459 4-3 2.148-1.477 3.482-3.477 4-6l1 2c1.601-2.472 3.601-3.472 6-3 .791-1.245 1.291-2.578 1.5-4a353.14 353.14 0 0 0 26-4.5c3.424-.747 6.757-.58 10 .5z"/><path fill="#926bfe" d="M295.5 33.5c1.694 1.027 3.027 2.361 4 4v6l-3 4c-2.634 1.054-5.134 3.054-7.5 6l-1-1c-.442 2.178-1.442 2.845-3 2a8.9 8.9 0 0 1-3 4c-.667-2.667-1.333-2.667-2 0-.984-2.295-1.817-1.961-2.5 1 .209.586.543 1.086 1 1.5-1.244.456-2.077-.044-2.5-1.5-.837 2.344-2.171 4.344-4 6h-4c-.189 2.295-1.523 4.295-4 6l-1-2c.035 3.745-.965 4.412-3 2-1.617 1.036-1.784 2.203-.5 3.5-1.244.456-2.077-.044-2.5-1.5-.684 1.284-.517 2.451.5 3.5-1.694 1.728-2.861 1.228-3.5-1.5-.98 1.759-1.647 3.426-2 5l-1-3c-.471 1.746-1.138 3.413-2 5-1.016-1.134-1.683-.801-2 1l-1-2-1 4-1-1c-.359 3.044-1.026 3.378-2 1-.221 3.443-1.221 3.776-3 1-2.826 1.417-2.993 2.917-.5 4.5-1.072 1.284-2.405 1.617-4 1-1.215 2.375-2.881 4.209-5 5.5l7-14 3-6c.617.111 1.117.444 1.5 1 1.382-2.292 1.882-4.625 1.5-7 1.701.31 3.368-.19 5-1.5l-2-1c1.167-.5 2-1.333 2.5-2.5l1 2c.359-3.044 1.026-3.378 2-1l2-4c.667 4 1.333 4 2 0l1 1c1.976-1.043 2.476-2.377 1.5-4 3.536-1.363 6.87-3.196 10-5.5.96-1.419 1.793-2.919 2.5-4.5l1 2c.359-3.044 1.026-3.378 2-1 1.193-1.478 1.693-2.812 1.5-4 .692.525 1.192 1.192 1.5 2a8.43 8.43 0 0 0 .5-4c1.322-.17 2.489.163 3.5 1 2.168-1.129 2.668-2.629 1.5-4.5 2.15-2.704 4.316-2.871 6.5-.5l2.5-2.5c-2.777-2.173-2.61-2.673.5-1.5l2-3c1.726 1.598 2.559 1.264 2.5-1z"/><path fill="#4bc7fe" d="M29.5 36.5a331.91 331.91 0 0 0 21 4.5l-3 1a7.29 7.29 0 0 1 3 2c-1.333.667-1.333 1.333 0 2a15.29 15.29 0 0 0-6.5 6.5l-1-2c-1.214 1.549-2.714 2.715-4.5 3.5 1.154.914.987 1.747-.5 2.5-.414-.457-.914-.791-1.5-1a31.16 31.16 0 0 1-4.5 6c-1.507-1.035-3.007-.868-4.5.5-.804 1.771-1.971 3.271-3.5 4.5-.414-.457-.914-.791-1.5-1-1.211.774-1.211 1.607 0 2.5-1.043 1.976-2.377 2.476-4 1.5-1.211.774-1.211 1.607 0 2.5-.594.464-1.261.631-2 .5-5.429-9.867-11.096-19.533-17-29v-6c1.779-3.764 4.779-5.431 9-5 7.231.813 14.231 2.147 21 4z"/><path fill="#857dfd" d="M259.5 37.5c-.209 1.422-.709 2.755-1.5 4-2.399-.472-4.399.528-6 3l-1-2c-.518 2.523-1.852 4.523-4 6-1.943-.459-3.276.541-4 3l-1-2a6.86 6.86 0 0 1-3 5c-1.84-1.333-2.34-1.166-1.5.5l-4 1c1.173 3.11.673 3.277-1.5.5-.465 1.431-1.299 2.597-2.5 3.5l1 1c-1.284.684-2.451.517-3.5-.5-1.837 3.681-4.67 6.015-8.5 7-1.076.879-1.91 2.546-2.5 5-.667-4-1.333-4-2 0h-3c-.5 1.167-1.333 2-2.5 2.5a.91.91 0 0 0 1 .5c-2.193 1.297-4.527 1.297-7 0-1.123-1.982-1.123-3.982 0-6a193.65 193.65 0 0 0 4-17l3-6c16.79-2.492 33.457-5.492 50-9z"/><path fill="#53bdfe" d="M29.5 36.5a962.16 962.16 0 0 1 43 7c-2.269 3.438-5.102 6.438-8.5 9-.974-2.378-1.641-2.044-2 1-6.024 3.199-12.024 7.865-18 14-1.016-1.134-1.683-.801-2 1l-1-4c-.36 2.108-1.027 4.108-2 6l-1-3c-.309 1.266-.809 2.433-1.5 3.5l1 1c-4.716 2.483-8.549 5.317-11.5 8.5l-1-5-1 7c-.759-1.563-1.926-2.563-3.5-3l-4-7c.739.131 1.406-.036 2-.5-1.211-.893-1.211-1.726 0-2.5 1.623.976 2.957.476 4-1.5-1.211-.893-1.211-1.726 0-2.5.586.209 1.086.543 1.5 1 1.529-1.229 2.696-2.729 3.5-4.5 1.493-1.368 2.993-1.535 4.5-.5a31.16 31.16 0 0 0 4.5-6c.586.209 1.086.543 1.5 1 1.487-.753 1.654-1.586.5-2.5 1.786-.785 3.286-1.951 4.5-3.5l1 2a15.29 15.29 0 0 1 6.5-6.5c-1.333-.667-1.333-1.333 0-2a7.29 7.29 0 0 0-3-2l3-1a331.91 331.91 0 0 1-21-4.5z" opacity=".997"/><path fill="#57b6fe" d="M72.5 43.5a381.08 381.08 0 0 0 17 3c.111.617.444 1.117 1 1.5-4.698-.454-8.531 1.046-11.5 4.5l-1-2c-.936 3.268-2.936 5.601-6 7l-1-1-7 7-1-1c-.652 2.223-2.152 3.39-4.5 3.5-1.425 1.362-2.258 2.862-2.5 4.5-.414-.457-.914-.791-1.5-1-3.277 1.806-6.444 4.473-9.5 8l-1-1a21.27 21.27 0 0 1-4 5c-.984-2.295-1.817-1.961-2.5 1-1.229.781-2.562 1.281-4 1.5-.804 1.771-1.971 3.271-3.5 4.5l-1-1c-.536 2.067-.036 3.901 1.5 5.5-.594.464-1.261.631-2 .5l-8-14c1.574.437 2.741 1.437 3.5 3l1-7 1 5c2.951-3.183 6.784-6.017 11.5-8.5l-1-1c.691-1.067 1.191-2.234 1.5-3.5l1 3c.973-1.892 1.64-3.892 2-6l1 4c.317-1.801.984-2.134 2-1 5.976-6.135 11.976-10.801 18-14 .359-3.044 1.026-3.378 2-1 3.398-2.562 6.231-5.562 8.5-9z"/><path fill="#5bb0fe" d="M89.5 46.5l10 2c-3.305.907-3.638 2.407-1 4.5-.753 1.487-1.586 1.654-2.5.5-.615 1.616-1.615 2.95-3 4l-1-2c-.583 1.502-1.416 2.835-2.5 4-.586-.209-1.086-.543-1.5-1l-2 4-1-3c-.216 1.884-.883 3.551-2 5 .077-1.238-.089-2.238-.5-3-.988 3.653-3.155 6.32-6.5 8l-1-1c-3.508 3.808-7.341 7.308-11.5 10.5l-1 .5c-.751-.876-1.251-1.876-1.5-3-1.142 4.483-3.808 7.816-8 10l-1-3c-.45 2.019-1.283 3.852-2.5 5.5-2.576.782-4.576 2.282-6 4.5-1.602-1.05-2.435-.383-2.5 2l-1-2c-.632 2.031-1.799 3.698-3.5 5-.925 1.141-1.759 1.141-2.5 0-.278.916-.778 1.582-1.5 2a36.18 36.18 0 0 1-4-7c.739.131 1.406-.036 2-.5-1.536-1.599-2.036-3.433-1.5-5.5l1 1c1.529-1.229 2.696-2.729 3.5-4.5 1.438-.219 2.771-.719 4-1.5.683-2.961 1.516-3.295 2.5-1a21.27 21.27 0 0 0 4-5l1 1c3.056-3.527 6.223-6.194 9.5-8 .586.209 1.086.543 1.5 1 .242-1.638 1.075-3.138 2.5-4.5 2.348-.11 3.848-1.277 4.5-3.5l1 1 7-7 1 1c3.064-1.399 5.064-3.732 6-7l1 2c2.969-3.454 6.802-4.954 11.5-4.5-.556-.383-.889-.883-1-1.5z"/><path fill="#9864fd" d="M296.5 47.5a288.26 288.26 0 0 1-16 28c-.622-1.127-1.455-2.127-2.5-3-4.749 3.379-9.416 7.379-14 12l-1-2c-.862 1.587-1.529 3.254-2 5-.974-2.378-1.641-2.044-2 1l-1-2c-2.022 2.031-3.689 4.365-5 7-.317-1.801-.984-2.134-2-1 .618 4.026-.715 4.693-4 2-.507 1.496-.007 2.663 1.5 3.5l-1.5 1.5c-.837-1.507-2.004-2.007-3.5-1.5l-2.5 5.5-1-2-2 4c-.605-1.981-1.605-2.315-3-1a22.98 22.98 0 0 1-2 5l-1-2-3 3-1-2a20.64 20.64 0 0 1-2 6c-.419-1.172-1.085-2.172-2-3-1.469 3.977-3.635 7.31-6.5 10v-1a89.72 89.72 0 0 0 8-16c1.571-2.135 2.904-4.468 4-7 2.119-1.291 3.785-3.125 5-5.5 1.595.617 2.928.284 4-1-2.493-1.583-2.326-3.083.5-4.5 1.779 2.776 2.779 2.443 3-1 .974 2.378 1.641 2.044 2-1l1 1 1-4 1 2c.317-1.801.984-2.134 2-1 .862-1.587 1.529-3.254 2-5l1 3c.353-1.574 1.02-3.241 2-5 .639 2.728 1.806 3.228 3.5 1.5-1.017-1.049-1.184-2.216-.5-3.5.423 1.456 1.256 1.956 2.5 1.5-1.284-1.297-1.117-2.464.5-3.5 2.035 2.412 3.035 1.745 3-2l1 2c2.477-1.705 3.811-3.705 4-6h4c1.829-1.656 3.163-3.656 4-6 .423 1.456 1.256 1.956 2.5 1.5-.457-.414-.791-.914-1-1.5.683-2.961 1.516-3.295 2.5-1 .667-2.667 1.333-2.667 2 0a8.9 8.9 0 0 0 3-4c1.558.845 2.558.178 3-2l1 1c2.366-2.946 4.866-4.946 7.5-6z" opacity=".994"/><path fill="#61a9fe" d="M99.5 48.5a41.58 41.58 0 0 0 8 1v6 7c.172.992-.162 1.658-1 2 .273-2.683-.727-4.183-3-4.5l1 1A1023.27 1023.27 0 0 0 61 93.5c-6.323 3.89-12.656 8.556-19 14-1.558-.845-2.558-.179-3 2-.383-.556-.883-.889-1.5-1-2.153-2.294-3.82-4.96-5-8 .722-.418 1.222-1.084 1.5-2 .741 1.141 1.575 1.141 2.5 0 1.701-1.302 2.868-2.969 3.5-5l1 2c.065-2.383.898-3.05 2.5-2 1.424-2.218 3.424-3.718 6-4.5 1.217-1.648 2.05-3.481 2.5-5.5l1 3c4.192-2.184 6.858-5.517 8-10 .249 1.124.749 2.124 1.5 3l1-.5c4.159-3.192 7.992-6.692 11.5-10.5l1 1c3.345-1.68 5.512-4.347 6.5-8 .411.762.577 1.762.5 3 1.117-1.449 1.784-3.116 2-5l1 3 2-4c.414.457.914.791 1.5 1 1.084-1.165 1.917-2.498 2.5-4l1 2c1.385-1.05 2.385-2.384 3-4 .914 1.154 1.747.987 2.5-.5-2.638-2.093-2.305-3.593 1-4.5z"/><path fill="#fed128" d="M206.5 52.5a193.65 193.65 0 0 1-4 17c-.617-.111-1.117-.444-1.5-1-1.724 5.022-4.724 6.689-9 5-2 2.667-4 2.667-6 0-.359 3.044-1.026 3.378-2 1-1.943.815-3.943 1.815-6 3-2.687-2.067-5.354-1.734-8 1-3.143.946-6.143.946-9 0-2 2.667-4 2.667-6 0-3.866 1.593-7.866 2.926-12 4-1.791-2.013-3.125-2.013-4 0-1.789.123-3.622.123-5.5 0-.978.477-1.811 1.143-2.5 2-2.184.608-4.184-.059-6-2-1.079 1.894-2.413 2.227-4 1l-7 3c-2.089-.245-4.089-.245-6 0-.183-2.865-.683-5.531-1.5-8v-7-7c.838-.342 1.172-1.008 1-2 .789.283 1.456.783 2 1.5-.837 1.011-1.17 2.178-1 3.5 1.624.14 2.79-.527 3.5-2l2 2c2.088-.808 4.088-1.808 6-3l2 2c1.791-2.013 3.125-2.013 4 0a7.29 7.29 0 0 1 2-3c1.395 1.315 2.395.981 3-1 .308.808.808 1.475 1.5 2 1.542-1.247 3.042-1.247 4.5 0a6.54 6.54 0 0 0 3-3c.667 2.667 1.333 2.667 2 0 2.476 2.316 4.809 1.982 7-1 1.77.776 3.603.61 5.5-.5-1.243-1.154-2.243-2.488-3-4 1.684-1.74 3.518-2.906 5.5-3.5 1.437 1.721.937 3.221-1.5 4.5 1.333 1 1.333 2 0 3 2.269 1.807 4.103 1.307 5.5-1.5l1 2c.317-1.801.984-2.134 2-1 .626-2.491 1.459-2.491 2.5 0 1.542-1.247 3.042-1.247 4.5 0l5-3 2 2a13.91 13.91 0 0 1 4-3c1.398.551 2.732.884 4 1l1-2c2.132.857 4.465 1.19 7 1 1.261-.259 2.261-.926 3-2 1.395 1.315 2.395.981 3-1 .667 2.667 1.333 2.667 2 0 1.764.489 3.264.489 4.5 0z"/><path fill="#65a3fe" d="M106.5 64.5v7c-1.29.558-2.123 1.558-2.5 3l-1-2c-2.477 1.705-3.811 3.705-4 6l-2-2c-4.476 4.666-9.643 8.499-15.5 11.5 1.154.914.987 1.747-.5 2.5l-1-1c-10.9 9.134-22.067 17.301-33.5 24.5l1 1c-1.578 1.094-3.245 1.928-5 2.5a37.79 37.79 0 0 1-5-9c.617.111 1.117.444 1.5 1 .442-2.179 1.442-2.845 3-2 6.344-5.444 12.677-10.11 19-14A1023.27 1023.27 0 0 1 104.5 61l-1-1c2.273.317 3.273 1.817 3 4.5z"/><path fill="#fecc25" d="M202.5 69.5c-1.123 2.018-1.123 4.018 0 6 2.473 1.297 4.807 1.297 7 0a192.44 192.44 0 0 0 27-5c3.522 1.367 4.522 3.7 3 7l-3 6c-1.89.204-3.39-.463-4.5-2-1.66 2.77-3.827 3.937-6.5 3.5.78 1.073.613 2.24-.5 3.5-2.023-5.003-4.69-5.336-8-1-1.333-2.667-2.667-2.667-4 0-.974-2.378-1.641-2.044-2 1l-1-4c-.471 1.746-1.138 3.413-2 5l-4-3a16.67 16.67 0 0 0-4 4c-1.333-2.667-2.667-2.667-4 0-1.333-2.667-2.667-2.667-4 0-1.797-2.596-3.131-2.263-4 1-2.469-2.145-4.469-1.479-6 2l-1-2c-.741 1.141-1.575 1.141-2.5 0-1.299.59-2.132 1.59-2.5 3-.691-2.391-1.691-2.391-3 0a13.91 13.91 0 0 0-4-3c-1.91.707-3.91 1.707-6 3-1.356-.88-2.856-1.213-4.5-1-.193 3.949-.693 3.949-1.5 0-.667 2.667-1.333 2.667-2 0-.75.626-1.584 1.126-2.5 1.5 1.154.914.987 1.747-.5 2.5-1.512-2.457-2.846-2.457-4 0-2.469-2.145-4.469-1.479-6 2l-1-2c-1.873-.589-3.54.078-5 2-1.46-1.922-3.127-2.589-5-2-.667 2.667-1.333 2.667-2 0-1.587 1.227-2.921.894-4-1-1.141 2.442-3.141 4.776-6 7l-3-4-1 2c-.667-1.333-1.333-1.333-2 0l-1 3c-.29-1.544-.956-2.877-2-4 .617 1.595.284 2.928-1 4-1.688-.825-1.855-1.825-.5-3-.346-1.196-.846-1.196-1.5 0-.21-1.558-.71-2.891-1.5-4v-10a41.73 41.73 0 0 1 1-9c.817 2.469 1.317 5.135 1.5 8 1.911-.245 3.911-.245 6 0l7-3c1.587 1.227 2.921.894 4-1 1.816 1.941 3.816 2.608 6 2 .689-.857 1.522-1.523 2.5-2 1.878.123 3.711.123 5.5 0 .875-2.013 2.209-2.013 4 0 4.134-1.074 8.134-2.407 12-4 2 2.667 4 2.667 6 0 2.857.946 5.857.946 9 0 2.646-2.734 5.313-3.067 8-1 2.057-1.185 4.057-2.185 6-3 .974 2.378 1.641 2.044 2-1 2 2.667 4 2.667 6 0 4.276 1.689 7.276.022 9-5 .383.556.883.889 1.5 1z"/><path fill="#6b9dfe" d="M106.5 71.5v7a41.73 41.73 0 0 0-1 9c-.722.418-1.222 1.084-1.5 2-.974-2.378-1.641-2.044-2 1-.914-3.685-1.581-3.352-2 1l-1-4c-.782 4.341-2.116 7.007-4 8l-1-4c-.36 2.108-1.027 4.108-2 6-.975-2.378-1.641-2.044-2 1-.249-1.124-.749-2.124-1.5-3l-1 .5c1.363 2.129 1.029 2.629-1 1.5-2.918 1.419-4.418 3.752-4.5 7-.667-4-1.333-4-2 0l-1-2a18.34 18.34 0 0 0-4 6c-.893-1.211-1.726-1.211-2.5 0-1.615 4.397-4.115 7.397-7.5 9l-1-2-2 4-1-2-2 4c-.974-2.378-1.641-2.044-2 1l-1-3c-.471 1.746-1.138 3.413-2 5-.667 1.333-1.333 1.333-2 0-.667 2.667-1.333 2.667-2 0-.232 1.237-.732 2.237-1.5 3a37.8 37.8 0 0 1-6-10c1.755-.572 3.422-1.406 5-2.5l-1-1c11.433-7.199 22.6-15.366 33.5-24.5l1 1c1.487-.753 1.654-1.586.5-2.5 5.857-3.001 11.024-6.834 15.5-11.5l2 2c.189-2.295 1.523-4.295 4-6l1 2c.377-1.442 1.21-2.442 2.5-3z"/><path fill="#fec81f" d="M236.5 83.5l-7 14c-1.096 2.532-2.429 4.865-4 7-1.763-2.378-3.763-2.378-6 0-1.467-.223-2.967-.556-4.5-1l-1 2c-1.268-.116-2.602-.449-4-1-3.157 1.221-6.324 2.221-9.5 3-4.203-.087-8.37-.087-12.5 0a7.25 7.25 0 0 1-2.5 2c-1.467-.223-2.967-.556-4.5-1l-1 2a98.04 98.04 0 0 1-12 0l-1 2-7-1a7.25 7.25 0 0 1-2.5 2c-3.175-.158-6.675-.158-10.5 0l-7 3c-4.859-.946-9.859-.946-15 0l-1 2c-1.268-.116-2.602-.449-4-1-1.079 1.894-2.413 2.227-4 1-1.994 1.164-4.161 1.831-6.5 2-1.704-.568-3.204-.568-4.5 0-.495-1.973-.662-3.973-.5-6v-9c-.306-2.885.027-5.552 1-8 .79 1.109 1.29 2.442 1.5 4 .654-1.196 1.154-1.196 1.5 0-1.355 1.175-1.188 2.175.5 3 1.284-1.072 1.617-2.405 1-4 1.044 1.123 1.71 2.456 2 4l1-3c.667-1.333 1.333-1.333 2 0l1-2 3 4c2.859-2.224 4.859-4.558 6-7 1.079 1.894 2.413 2.227 4 1 .667 2.667 1.333 2.667 2 0 1.873-.589 3.54.078 5 2 1.46-1.922 3.127-2.589 5-2l1 2c1.531-3.479 3.531-4.145 6-2 1.154-2.457 2.488-2.457 4 0 1.487-.753 1.654-1.586.5-2.5.916-.374 1.75-.874 2.5-1.5.667 2.667 1.333 2.667 2 0 .807 3.949 1.307 3.949 1.5 0 1.644-.213 3.144.12 4.5 1 2.09-1.293 4.09-2.293 6-3a13.91 13.91 0 0 1 4 3c1.309-2.391 2.309-2.391 3 0 .368-1.41 1.201-2.41 2.5-3 .925 1.141 1.759 1.141 2.5 0l1 2c1.531-3.479 3.531-4.145 6-2 .869-3.263 2.203-3.596 4-1 1.333-2.667 2.667-2.667 4 0 1.333-2.667 2.667-2.667 4 0a16.67 16.67 0 0 1 4-4c1.217.886 2.551 1.886 4 3 .862-1.587 1.529-3.254 2-5l1 4c.359-3.044 1.026-3.378 2-1 1.333-2.667 2.667-2.667 4 0 3.31-4.336 5.977-4.003 8 1 1.113-1.26 1.28-2.427.5-3.5 2.673.437 4.84-.73 6.5-3.5 1.11 1.537 2.61 2.204 4.5 2z"/><path fill="#7195fe" d="M105.5 87.5v10c-.973 2.448-1.306 5.115-1 8-2.066-.748-3.9-.081-5.5 2l-1-2c-1.371 4.408-4.038 6.741-8 7-1.667 3-4 5.333-7 7l-1-1c-.724 2.459-2.057 3.459-4 3-3.206 3.781-6.872 7.115-11 10-1.016-1.134-1.683-.801-2 1l-1-2c-1.402 4.523-3.736 6.523-7 6l-1.5 1.5c1.098.77 1.098 1.603 0 2.5a77.74 77.74 0 0 1-7-13c.768-.763 1.268-1.763 1.5-3 .667 2.667 1.333 2.667 2 0 .667 1.333 1.333 1.333 2 0 .862-1.587 1.529-3.254 2-5l1 3c.359-3.044 1.026-3.378 2-1l2-4 1 2 2-4 1 2c3.385-1.603 5.885-4.603 7.5-9 .774-1.211 1.607-1.211 2.5 0a18.34 18.34 0 0 1 4-6l1 2c.667-4 1.333-4 2 0 .082-3.248 1.582-5.581 4.5-7 2.029 1.129 2.363.629 1-1.5l1-.5c.751.876 1.251 1.876 1.5 3 .359-3.044 1.025-3.378 2-1 .973-1.892 1.64-3.892 2-6l1 4c1.884-.993 3.218-3.659 4-8l1 4c.419-4.352 1.086-4.685 2-1 .359-3.044 1.026-3.378 2-1 .278-.916.778-1.582 1.5-2z"/><path fill="#a05afe" d="M280.5 75.5c-6.91 14.16-14.577 27.826-23 41 .131-.739-.036-1.406-.5-2-1.333.667-2.333 1.667-3 3l-1-1c-1.574 1.484-2.907 3.151-4 5l-1-2c-.29 1.544-.956 2.877-2 4l-1-2c-.637 2.828-2.304 4.828-5 6l-1-1c-.29 1.544-.956 2.877-2 4-1.666-.84-1.833-.34-.5 1.5-1.249 1.824-2.415 1.657-3.5-.5-1.617 1.036-1.784 2.203-.5 3.5-1.417 2.826-2.917 2.993-4.5.5-.667 2.667-1.333 2.667-2 0-.637 2.828-2.304 4.828-5 6l-1-1-1 3c-1.558-.845-2.558-.179-3 2l-3-1c-.547 2.64-2.213 4.974-5 7l-1-1c-1.651 1.71-3.484 3.044-5.5 4l8-18a159.99 159.99 0 0 0 8-15c2.865-2.69 5.031-6.023 6.5-10 .915.828 1.581 1.828 2 3a20.64 20.64 0 0 0 2-6l1 2 3-3 1 2a22.98 22.98 0 0 0 2-5c1.395-1.315 2.395-.981 3 1l2-4 1 2 2.5-5.5c1.496-.507 2.663-.007 3.5 1.5l1.5-1.5c-1.507-.837-2.007-2.004-1.5-3.5 3.285 2.693 4.618 2.026 4-2 1.016-1.134 1.683-.801 2 1 1.311-2.635 2.978-4.969 5-7l1 2c.359-3.044 1.026-3.378 2-1 .471-1.746 1.138-3.413 2-5l1 2c4.584-4.621 9.251-8.621 14-12 1.045.873 1.878 1.873 2.5 3z" opacity=".995"/><path fill="#fec31d" d="M225.5 104.5a89.72 89.72 0 0 1-8 16c-2.071.002-4.238-.331-6.5-1l-1.5 1.5a26.67 26.67 0 0 0-6.5 1.5c-2.042-.785-4.042-.452-6 1l-3-2c-2.871.201-5.537 1.534-8 4-2.476-2.315-4.809-1.982-7 1l-3-2c-2.038 1.572-4.371 2.572-7 3-2.026-.519-4.026-.853-6-1-.667 2.667-1.333 2.667-2 0l-1.5 1.5c-6.105.85-12.105 2.016-18 3.5-1.979-1.668-4.312-2.334-7-2a119.89 119.89 0 0 1-30 5.5c-.556-.383-.889-.883-1-1.5-.323-6.522.01-12.855 1-19-.162 2.027.005 4.027.5 6 1.296-.568 2.796-.568 4.5 0 2.339-.169 4.506-.836 6.5-2 1.587 1.227 2.921.894 4-1 1.398.551 2.732.884 4 1l1-2c5.141-.946 10.141-.946 15 0l7-3c3.825-.158 7.325-.158 10.5 0a7.25 7.25 0 0 0 2.5-2l7 1 1-2a98.04 98.04 0 0 0 12 0l1-2c1.533.444 3.033.777 4.5 1a7.25 7.25 0 0 0 2.5-2c4.13-.087 8.297-.087 12.5 0 3.176-.779 6.343-1.779 9.5-3 1.398.551 2.732.884 4 1l1-2c1.533.444 3.033.777 4.5 1 2.237-2.378 4.237-2.378 6 0z"/><path fill="#798bfe" d="M104.5 105.5v9c-.99 6.145-1.323 12.478-1 19-.651.591-1.318 1.257-2 2-1.175-1.355-2.175-1.188-3 .5l1 1a11.53 11.53 0 0 0-4.5 3.5l-1-1c-1.333 2.667-3.333 4.667-6 6h-3l-2 4h-3c-.249 1.124-.749 2.124-1.5 3a31.01 31.01 0 0 0-9.5 7c-.77-1.098-1.603-1.098-2.5 0-3.904-6.134-7.571-12.468-11-19 1.098-.897 1.098-1.73 0-2.5l1.5-1.5c3.264.523 5.598-1.477 7-6l1 2c.317-1.801.984-2.134 2-1 4.128-2.885 7.794-6.219 11-10 1.943.459 3.276-.541 4-3l1 1c3-1.667 5.333-4 7-7 3.962-.259 6.629-2.592 8-7l1 2c1.6-2.081 3.434-2.748 5.5-2z"/><path fill="#febf17" d="M217.5 120.5v1a159.99 159.99 0 0 1-8 15c-.617-.111-1.117-.444-1.5-1-1.517 4.023-3.85 5.356-7 4-1.797 2.596-3.131 2.263-4-1-.419 1.172-1.085 2.172-2 3-2 1.333-4 1.333-6 0l-2 2-5-1-2 2h-8c-1.779-2.776-2.779-2.443-3 1-.667-4-1.333-4-2 0-1.114-3.799-2.447-3.799-4 0l-1-2c-1.012 2.364-2.345 3.698-4 4-1.333-4-2.667-4-4 0-2.478.947-4.812.947-7 0-.626 2.491-1.459 2.491-2.5 0a7.25 7.25 0 0 0-2.5 2c-.816-1.323-1.983-1.989-3.5-2l3-16c5.895-1.484 11.895-2.65 18-3.5l1.5-1.5c.667 2.667 1.333 2.667 2 0 1.974.147 3.974.481 6 1 2.629-.428 4.962-1.428 7-3l3 2c2.191-2.982 4.524-3.315 7-1 2.463-2.466 5.129-3.799 8-4l3 2c1.958-1.452 3.958-1.785 6-1a26.67 26.67 0 0 1 6.5-1.5l1.5-1.5c2.262.669 4.429 1.002 6.5 1z"/><path fill="#847dfe" d="M134.5 129.5c.111.617.444 1.117 1 1.5a11.53 11.53 0 0 0-4.5 3.5c-.561-.522-1.228-.855-2-1-3.016 3.575-6.183 6.242-9.5 8-2.029-1.129-2.363-.629-1 1.5-1.072 1.284-2.405 1.617-4 1l1 1-3 1c1.154.914.987 1.747-.5 2.5-.414-.457-.914-.791-1.5-1 .204 1.029-.296 2.029-1.5 3l-1-1c-3.935 1.637-6.602 3.971-8 7l-1-1c.178 1.94-.822 3.607-3 5-1.011-.837-2.178-1.17-3.5-1 .088 3.098-.412 3.432-1.5 1l-9 9-1-1-2 4-1-2c-.5 1.167-1.333 2-2.5 2.5.837 1.011 1.17 2.178 1 3.5-4.086-5.165-7.42-10.832-10-17 .897-1.098 1.73-1.098 2.5 0a31.01 31.01 0 0 1 9.5-7c.751-.876 1.251-1.876 1.5-3h3l2-4h3c2.667-1.333 4.667-3.333 6-6l1 1a11.53 11.53 0 0 1 4.5-3.5l-1-1c.825-1.688 1.825-1.855 3-.5.682-.743 1.349-1.409 2-2 .111.617.444 1.117 1 1.5a119.89 119.89 0 0 0 30-5.5z"/><path fill="#a94dfe" d="M257.5 116.5c-7.162 14.328-14.829 28.328-23 42 .228-1.855-.439-2.688-2-2.5 1.141.741 1.141 1.575 0 2.5-1.103.498-2.103.831-3 1 .209.586.543 1.086 1 1.5-3.226 1.198-6.059 3.031-8.5 5.5l-1-1c-2.477 1.705-3.811 3.705-4 6-2.075-2.528-2.908-2.361-2.5.5-2.833.833-4.667 2.667-5.5 5.5-.626-2.491-1.459-2.491-2.5 0-1.623-.976-2.957-.476-4 1.5l1 1c-3.809 1.133-5.975 3.299-6.5 6.5-.718-.951-1.551-1.117-2.5-.5-2.831 1.687-4.831 3.52-6 5.5-.586-.209-1.086-.543-1.5-1 .979 1.779.646 3.445-1 5l-1-2c-.718.951-1.551 1.117-2.5.5 1.274-.977 1.274-1.811 0-2.5a153.13 153.13 0 0 0 7-15l12-22c2.016-.956 3.849-2.29 5.5-4l1 1c2.787-2.026 4.453-4.36 5-7l3 1c.442-2.179 1.442-2.845 3-2l1-3 1 1c2.696-1.172 4.363-3.172 5-6 .667 2.667 1.333 2.667 2 0 1.583 2.493 3.083 2.326 4.5-.5-1.284-1.297-1.117-2.464.5-3.5 1.085 2.157 2.251 2.324 3.5.5-1.333-1.84-1.166-2.34.5-1.5 1.044-1.123 1.71-2.456 2-4l1 1c2.696-1.172 4.363-3.172 5-6l1 2c1.044-1.123 1.71-2.456 2-4l1 2c1.093-1.849 2.426-3.516 4-5l1 1c.667-1.333 1.667-2.333 3-3 .464.594.631 1.261.5 2z"/><path fill="#8c73fe" d="M134.5 129.5c2.688-.334 5.021.332 7 2l-3 16c-.296 1.903-.963 3.57-2 5-.442-.731-.609-1.731-.5-3-.915.828-1.581 1.828-2 3l-1-2c-.442 2.179-1.442 2.845-3 2-1.824 1.249-1.657 2.415.5 3.5-1.694 1.728-2.861 1.228-3.5-1.5-.11 2.348-1.277 3.848-3.5 4.5 2.401.805 2.234 1.638-.5 2.5l-1-1c-.359 3.044-1.026 3.378-2 1-.974 2.378-1.641 2.044-2-1l-1 3c-3.31 1.646-5.977 3.98-8 7l-1-2c-.724 2.459-2.057 3.459-4 3-1.766 2.096-3.099 4.429-4 7-.893-1.211-1.726-1.211-2.5 0 1.355 1.175 1.188 2.175-.5 3-1.016-1.134-1.683-.801-2 1l-1-2-1 4c-.249-1.124-.749-2.124-1.5-3l-1 .5c.811 2.291-.023 4.125-2.5 5.5-.975-2.378-1.641-2.044-2 1-1.159-1.066-1.992-.733-2.5 1-.973-1.75-2.306-3.25-4-4.5l1-1c-1.995-2.157-3.328-4.657-4-7.5.17-1.322-.163-2.489-1-3.5 1.167-.5 2-1.333 2.5-2.5l1 2 2-4 1 1 9-9c1.088 2.432 1.588 2.098 1.5-1 1.322-.17 2.489.163 3.5 1 2.178-1.393 3.178-3.06 3-5l1 1c1.398-3.029 4.065-5.363 8-7l1 1c1.204-.971 1.704-1.971 1.5-3 .586.209 1.086.543 1.5 1 1.487-.753 1.654-1.586.5-2.5l3-1-1-1c1.595.617 2.928.284 4-1-1.363-2.129-1.029-2.629 1-1.5 3.317-1.758 6.484-4.425 9.5-8 .772.145 1.439.478 2 1a11.53 11.53 0 0 1 4.5-3.5c-.556-.383-.889-.883-1-1.5z"/><path fill="#feb815" d="M209.5 136.5l-8 18-12 22c-3.268.54-6.768.54-10.5 0l-1 2c-1.583.007-3.249-.326-5-1-1 3.667-2.667 4-5 1a13.92 13.92 0 0 1-4 3c-1.039-1.21-2.206-2.21-3.5-3 .172-.992-.162-1.658-1-2-.462-1.38-1.462-2.047-3-2l-20.5 6c-1.653-.32-2.653-1.32-3-3-.556-2.385-.39-4.718.5-7a212.02 212.02 0 0 0 3-18c1.037-1.43 1.704-3.097 2-5 1.517.011 2.684.677 3.5 2a7.25 7.25 0 0 1 2.5-2c1.041 2.491 1.874 2.491 2.5 0 2.188.947 4.522.947 7 0 1.333-4 2.667-4 4 0 1.655-.302 2.988-1.636 4-4l1 2c1.553-3.799 2.886-3.799 4 0 .667-4 1.333-4 2 0 .221-3.443 1.221-3.776 3-1h8l2-2 5 1 2-2c2 1.333 4 1.333 6 0 .915-.828 1.581-1.828 2-3 .869 3.263 2.203 3.596 4 1 3.15 1.356 5.483.023 7-4 .383.556.883.889 1.5 1z"/><path fill="#916bfe" d="M136.5 152.5a212.02 212.02 0 0 1-3 18l-2.5-3-2 4-1-1c-.724 2.459-2.057 3.459-4 3-.691 2.391-1.691 2.391-3 0-.065 2.807-1.065 4.807-3 6l-1-1c-.84 2.964-1.84 3.297-3 1-.837 2.344-2.171 4.344-4 6-.915-.828-1.581-1.828-2-3-1.113 1.26-1.28 2.427-.5 3.5-1.036 1.617-2.203 1.784-3.5.5l-1 4c-.419-1.172-1.085-2.172-2-3-2.919 1.809-4.253 4.143-4 7a7.29 7.29 0 0 1-2-3c-1.613 2.424-2.947 4.757-4 7-.671-.752-1.504-1.086-2.5-1a24.77 24.77 0 0 1-5-8c.508-1.733 1.341-2.066 2.5-1 .359-3.044 1.025-3.378 2-1 2.477-1.375 3.311-3.209 2.5-5.5l1-.5c.751.876 1.251 1.876 1.5 3l1-4 1 2c.317-1.801.984-2.134 2-1 1.688-.825 1.855-1.825.5-3 .774-1.211 1.607-1.211 2.5 0 .901-2.571 2.234-4.904 4-7 1.943.459 3.276-.541 4-3l1 2c2.023-3.02 4.69-5.354 8-7l1-3c.359 3.044 1.026 3.378 2 1 .974 2.378 1.641 2.044 2-1l1 1c2.734-.862 2.901-1.695.5-2.5 2.223-.652 3.39-2.152 3.5-4.5.639 2.728 1.806 3.228 3.5 1.5-2.157-1.085-2.324-2.251-.5-3.5 1.558.845 2.558.179 3-2l1 2c.419-1.172 1.085-2.172 2-3-.109 1.269.058 2.269.5 3z"/><path fill="#a257fe" d="M159.5 176.5c.838.342 1.172 1.008 1 2l-3 10c-1.871.359-3.371 1.359-4.5 3l-1-1a22.98 22.98 0 0 0-2 5c-.667-4-1.333-4-2 0l-1-1c-.442 2.179-1.442 2.845-3 2l-1 3c-1.84-1.333-2.34-1.166-1.5.5a23.65 23.65 0 0 0-3 3.5c-.586-.209-1.086-.543-1.5-1l-3 5-1-2c-.953 1.955-2.287 3.622-4 5-2.075-2.528-2.908-2.361-2.5.5-1.383 2.123-3.05 3.123-5 3l1 1c-1.146.645-2.146 1.478-3 2.5-.586-.209-1.086-.543-1.5-1l-3 5-1-2c-2.49 3.535-5.323 6.202-8.5 8-4.075-5.137-7.408-10.804-10-17 2.488 1.24 4.321 3.24 5.5 6l1-1 1 3a20.64 20.64 0 0 1 2-6c1.398.551 2.732.884 4 1 .492-1.049.326-2.049-.5-3 .605-1.981 1.605-2.315 3-1l1-2c1.383 2.576 2.217 2.242 2.5-1 .805 2.401 1.638 2.234 2.5-.5l-1-1c1.493-1.368 2.993-1.535 4.5-.5a23.65 23.65 0 0 1 3.5-3l-2-1c1.507-1.239 2.674-.905 3.5 1 .684-1.284.517-2.451-.5-3.5 1.493-1.368 2.993-1.535 4.5-.5 1.295-1.341 1.795-2.674 1.5-4 .692.525 1.192 1.192 1.5 2 1.193-1.478 1.693-2.812 1.5-4 .692.525 1.192 1.192 1.5 2a22.98 22.98 0 0 0 2-5c2.032 2.405 3.532 1.905 4.5-1.5l-1-1c2.949-.39 5.116-1.89 6.5-4.5l1 2c.943-2.9 2.61-5.233 5-7 1.66.666 3.494.666 5.5 0z" opacity=".998"/><path fill="#9b5ffd" d="M133.5 170.5c-.89 2.282-1.056 4.615-.5 7 .347 1.68 1.347 2.68 3 3a722.73 722.73 0 0 1 20.5-6c1.538-.047 2.538.62 3 2-2.006.666-3.84.666-5.5 0-2.39 1.767-4.057 4.1-5 7l-1-2c-1.384 2.61-3.551 4.11-6.5 4.5l1 1c-.968 3.405-2.468 3.905-4.5 1.5a22.98 22.98 0 0 1-2 5c-.308-.808-.808-1.475-1.5-2 .193 1.188-.307 2.522-1.5 4-.308-.808-.808-1.475-1.5-2 .295 1.326-.205 2.659-1.5 4-1.507-1.035-3.007-.868-4.5.5 1.017 1.049 1.184 2.216.5 3.5-.826-1.905-1.993-2.239-3.5-1l2 1a23.65 23.65 0 0 0-3.5 3c-1.507-1.035-3.007-.868-4.5.5l1 1c-.862 2.734-1.695 2.901-2.5.5-.283 3.242-1.117 3.576-2.5 1l-1 2c-1.395-1.315-2.395-.981-3 1 .826.951.992 1.951.5 3-1.268-.116-2.602-.449-4-1a20.64 20.64 0 0 0-2 6l-1-3-1 1c-1.179-2.76-3.012-4.76-5.5-6a77.74 77.74 0 0 1-7-13c.996-.086 1.829.248 2.5 1 1.053-2.243 2.387-4.576 4-7a7.29 7.29 0 0 0 2 3c-.253-2.857 1.081-5.191 4-7 .915.828 1.581 1.828 2 3l1-4c1.297 1.284 2.464 1.117 3.5-.5-.78-1.073-.613-2.24.5-3.5.419 1.172 1.085 2.172 2 3 1.829-1.656 3.163-3.656 4-6 1.16 2.297 2.16 1.964 3-1l1 1c1.935-1.193 2.935-3.193 3-6 1.309 2.391 2.309 2.391 3 0 1.943.459 3.276-.541 4-3l1 1 2-4 2.5 3z"/><path fill="#b440fe" d="M234.5 158.5c-8.509 16.359-17.509 32.359-27 48 .131-.739-.036-1.406-.5-2l-6 7-1-1a15.92 15.92 0 0 1-6.5 5 10.26 10.26 0 0 0-1.5 4c-.667-4-1.333-4-2 0-1.943-.459-3.276.541-4 3l-1-2c-.5 1.833-1.667 3-3.5 3.5l2 1a4.59 4.59 0 0 0-2.5 2.5l-1-3c-.684 1.859-1.684 3.526-3 5l-1-1c-1.264 2.107-3.097 3.107-5.5 3a8.43 8.43 0 0 1-.5 4l-1-2-2 4c-.317-1.801-.984-2.134-2-1-.359 3.044-1.026 3.378-2 1-.442 2.179-1.442 2.845-3 2-.814 2.677-2.314 4.677-4.5 6l27-54c1.274.689 1.274 1.523 0 2.5.949.617 1.782.451 2.5-.5l1 2c1.646-1.555 1.979-3.221 1-5 .414.457.914.791 1.5 1 1.169-1.98 3.169-3.813 6-5.5.949-.617 1.782-.451 2.5.5.525-3.201 2.691-5.367 6.5-6.5l-1-1c1.043-1.976 2.377-2.476 4-1.5 1.041-2.491 1.874-2.491 2.5 0 .833-2.833 2.667-4.667 5.5-5.5-.408-2.861.425-3.028 2.5-.5.189-2.295 1.523-4.295 4-6l1 1c2.441-2.469 5.274-4.302 8.5-5.5-.457-.414-.791-.914-1-1.5.897-.169 1.897-.502 3-1 1.141-.925 1.141-1.759 0-2.5 1.561-.188 2.228.645 2 2.5z" opacity=".999"/><path fill="#fdab12" d="M189.5 176.5a153.13 153.13 0 0 1-7 15l-27 54c-3.289 5.15-6.289 5.15-9 0a172.15 172.15 0 0 0 5-28c2.782-9.389 4.782-19.055 6-29l3-10c1.294.79 2.461 1.79 3.5 3a13.92 13.92 0 0 0 4-3c2.333 3 4 2.667 5-1 1.751.674 3.417 1.007 5 1l1-2c3.732.54 7.232.54 10.5 0z"/><path fill="#a94dfe" d="M157.5 188.5c-1.218 9.945-3.218 19.611-6 29a.91.91 0 0 0-.5-1c-.632 2.031-1.799 3.698-3.5 5-.586-.209-1.086-.543-1.5-1-.284 2.386-1.284 3.052-3 2 .213 2.251-.787 4.251-3 6-.718-.951-1.551-1.117-2.5-.5-7.514 4.923-13.847 9.589-19 14 .714 1.343.38 2.676-1 4a8.98 8.98 0 0 1 2 6.5c-5.423-7.841-10.09-16.174-14-25 3.177-1.798 6.01-4.465 8.5-8l1 2 3-5c.414.457.914.791 1.5 1 .854-1.022 1.854-1.855 3-2.5l-1-1c1.95.123 3.617-.877 5-3-.408-2.861.425-3.028 2.5-.5 1.713-1.378 3.047-3.045 4-5l1 2 3-5c.414.457.914.791 1.5 1a23.65 23.65 0 0 1 3-3.5c-.84-1.666-.34-1.833 1.5-.5l1-3c1.558.845 2.558.179 3-2l1 1c.667-4 1.333-4 2 0a22.98 22.98 0 0 1 2-5l1 1c1.129-1.641 2.629-2.641 4.5-3z"/><path fill="#ba3afe" d="M207.5 206.5l-48.5 88c-1.059 2.159-2.559 3.826-4.5 5h-7c-1.188-.864-2.355-1.864-3.5-3a1435.44 1435.44 0 0 1-24.5-44 8.98 8.98 0 0 0-2-6.5c1.38-1.324 1.714-2.657 1-4 5.153-4.411 11.486-9.077 19-14 .949-.617 1.782-.451 2.5.5 2.213-1.749 3.213-3.749 3-6 1.716 1.052 2.716.386 3-2 .414.457.914.791 1.5 1 1.701-1.302 2.868-2.969 3.5-5a.91.91 0 0 1 .5 1 172.15 172.15 0 0 1-5 28c2.711 5.15 5.711 5.15 9 0 2.186-1.323 3.686-3.323 4.5-6 1.558.845 2.558.179 3-2 .974 2.378 1.641 2.044 2-1 1.016-1.134 1.683-.801 2 1l2-4 1 2a8.43 8.43 0 0 0 .5-4c2.403.107 4.236-.893 5.5-3l1 1c1.316-1.474 2.316-3.141 3-5l1 3a4.59 4.59 0 0 1 2.5-2.5l-2-1c1.833-.5 3-1.667 3.5-3.5l1 2c.724-2.459 2.057-3.459 4-3 .667-4 1.333-4 2 0a10.26 10.26 0 0 1 1.5-4 15.92 15.92 0 0 0 6.5-5l1 1 6-7c.464.594.631 1.261.5 2z"/></svg>